  0
SECTION
  2
HEADER
  9
$ACADVER
  1
AC1009
  9
$FILLMODE
 70
1
  9
$EXTMIN
 10
-36.1300
 20
-33.4280
 30
0.0000
  9
$EXTMAX
 10
39.0000
 20
35.0000
 30
0.0000
  0
ENDSEC
  0
SECTION
  2
TABLES
  0
TABLE
  2
LTYPE
 70
1
  0
LTYPE
  2
CONTINUOUS
 70
64
  3
Solid line
 72
65
 73
0
 40
0
  0
ENDTAB
  0
TABLE
  2
LAYER
 70
255
  0
LAYER
  2
254
 70
64
 62
253
  6
CONTINUOUS
  0
ENDTAB
  0
ENDSEC
  0
SECTION
  2
BLOCKS
  0
BLOCK
  8
0
  2
RECT
 70
64
 10
0.0000
 20
0.0000
 30
0.0000
  3
RECT
  0
SOLID
  8
0
 10
-0.5000
 20
-0.5000
 30
0.0000
 11
0.5000
 21
-0.5000
 31
0.0000
 12
-0.5000
 22
0.5000
 32
0.0000
 13
0.5000
 23
0.5000
 33
0.0000
  0
ENDBLK
  8
0
  0
BLOCK
  8
0
  2
PIE
 70
64
 10
0.0000
 20
0.0000
 30
0.0000
  3
PIE
  0
POLYLINE
  8
0
 66
1
 10
0.0000
 20
0.0000
 30
0.0000
 40
0.5000
 41
0.5000
 70
0
  0
VERTEX
  8
0
 10
0.0000
 20
-0.2500
 30
0.0000
 42
1.0000
  0
VERTEX
  8
0
 10
0.0000
 20
0.2500
 30
0.0000
 42
1.0000
  0
VERTEX
  8
0
 10
0.0000
 20
-0.2500
 30
0.0000
  0
SEQEND
  8
0
  0
ENDBLK
  8
0
  0
BLOCK
  8
0
  2
OCTAGONP
 70
64
 10
0.0000
 20
0.0000
 30
0.0000
  3
OCTAGONP
  0
POLYLINE
  8
0
 66
1
 10
0.0000
 20
0.0000
 30
0.0000
 40
0.5000
 41
0.5000
 70
0
  0
VERTEX
  8
0
 10
-0.2500
 20
-0.1036
 30
0.0000
  0
VERTEX
  8
0
 10
-0.2500
 20
0.1036
 30
0.0000
  0
VERTEX
  8
0
 10
-0.1036
 20
0.2500
 30
0.0000
  0
VERTEX
  8
0
 10
0.1036
 20
0.2500
 30
0.0000
  0
VERTEX
  8
0
 10
0.2500
 20
0.1036
 30
0.0000
  0
VERTEX
  8
0
 10
0.2500
 20
-0.1036
 30
0.0000
  0
VERTEX
  8
0
 10
0.1036
 20
-0.2500
 30
0.0000
  0
VERTEX
  8
0
 10
-0.1036
 20
-0.2500
 30
0.0000
  0
VERTEX
  8
0
 10
-0.2500
 20
-0.1036
 30
0.0000
  0
VERTEX
  8
0
 10
-0.2500
 20
0.1036
 30
0.0000
  0
SEQEND
  8
0
  0
ENDBLK
  8
0
  0
BLOCK
  8
0
  2
SQUAREP
 70
64
 10
0.0000
 20
0.0000
 30
0.0000
  3
SQUAREP
  0
SOLID
  8
0
 10
-0.5000
 20
-0.5000
 30
0.0000
 11
0.5000
 21
-0.5000
 31
0.0000
 12
-0.5000
 22
0.5000
 32
0.0000
 13
0.5000
 23
0.5000
 33
0.0000
  0
ENDBLK
  8
0
  0
BLOCK
  8
0
  2
ROUNDP
 70
64
 10
0.0000
 20
0.0000
 30
0.0000
  3
ROUNDP
  0
POLYLINE
  8
0
 66
1
 10
0.0000
 20
0.0000
 30
0.0000
 40
0.5000
 41
0.5000
 70
0
  0
VERTEX
  8
0
 10
0.0000
 20
-0.2500
 30
0.0000
 42
1.0000
  0
VERTEX
  8
0
 10
0.0000
 20
0.2500
 30
0.0000
 42
1.0000
  0
VERTEX
  8
0
 10
0.0000
 20
-0.2500
 30
0.0000
  0
SEQEND
  8
0
  0
ENDBLK
  8
0
  0
BLOCK
  8
0
  2
ANNULUSP
 70
64
 10
0.0000
 20
0.0000
 30
0.0000
  3
ANNULUSP
  0
POLYLINE
  8
0
 66
1
 10
0.0000
 20
0.0000
 30
0.0000
 40
0.5000
 41
0.5000
 70
0
  0
VERTEX
  8
0
 10
0.0000
 20
-0.2500
 30
0.0000
 42
1.0000
  0
VERTEX
  8
0
 10
0.0000
 20
0.2500
 30
0.0000
 42
1.0000
  0
VERTEX
  8
0
 10
0.0000
 20
-0.2500
 30
0.0000
  0
SEQEND
  8
0
  0
ENDBLK
  8
0
  0
BLOCK
  8
0
  2
THERMALP
 70
64
 10
0.0000
 20
0.0000
 30
0.0000
  3
THERMALP
  0
POLYLINE
  8
0
 66
1
 10
0.0000
 20
0.0000
 30
0.0000
 40
0.1000
 41
0.1000
 70
0
  0
VERTEX
  8
0
 10
-0.2379
 20
0.4500
 30
0.0000
  0
VERTEX
  8
0
 10
0.2379
 20
0.4500
 30
0.0000
  0
SEQEND
  8
0
  0
POLYLINE
  8
0
 66
1
 10
0.0000
 20
0.0000
 30
0.0000
 40
0.0500
 41
0.0500
 70
0
  0
VERTEX
  8
0
 10
0.2379
 20
0.4250
 30
0.0000
 42
1.0000
  0
VERTEX
  8
0
 10
0.2379
 20
0.4750
 30
0.0000
  0
SEQEND
  8
0
  0
POLYLINE
  8
0
 66
1
 10
0.0000
 20
0.0000
 30
0.0000
 40
0.0500
 41
0.0500
 70
0
  0
VERTEX
  8
0
 10
-0.2379
 20
0.4750
 30
0.0000
 42
1.0000
  0
VERTEX
  8
0
 10
-0.2379
 20
0.4250
 30
0.0000
  0
SEQEND
  8
0
  0
POLYLINE
  8
0
 66
1
 10
0.0000
 20
0.0000
 30
0.0000
 40
0.1000
 41
0.1000
 70
0
  0
VERTEX
  8
0
 10
0.4500
 20
0.2379
 30
0.0000
  0
VERTEX
  8
0
 10
0.4500
 20
-0.2379
 30
0.0000
  0
SEQEND
  8
0
  0
POLYLINE
  8
0
 66
1
 10
0.0000
 20
0.0000
 30
0.0000
 40
0.0500
 41
0.0500
 70
0
  0
VERTEX
  8
0
 10
0.4250
 20
-0.2379
 30
0.0000
 42
1.0000
  0
VERTEX
  8
0
 10
0.4750
 20
-0.2379
 30
0.0000
  0
SEQEND
  8
0
  0
POLYLINE
  8
0
 66
1
 10
0.0000
 20
0.0000
 30
0.0000
 40
0.0500
 41
0.0500
 70
0
  0
VERTEX
  8
0
 10
0.4750
 20
0.2379
 30
0.0000
 42
1.0000
  0
VERTEX
  8
0
 10
0.4250
 20
0.2379
 30
0.0000
  0
SEQEND
  8
0
  0
POLYLINE
  8
0
 66
1
 10
0.0000
 20
0.0000
 30
0.0000
 40
0.1000
 41
0.1000
 70
0
  0
VERTEX
  8
0
 10
0.2379
 20
-0.4500
 30
0.0000
  0
VERTEX
  8
0
 10
-0.2379
 20
-0.4500
 30
0.0000
  0
SEQEND
  8
0
  0
POLYLINE
  8
0
 66
1
 10
0.0000
 20
0.0000
 30
0.0000
 40
0.0500
 41
0.0500
 70
0
  0
VERTEX
  8
0
 10
-0.2379
 20
-0.4250
 30
0.0000
 42
1.0000
  0
VERTEX
  8
0
 10
-0.2379
 20
-0.4750
 30
0.0000
  0
SEQEND
  8
0
  0
POLYLINE
  8
0
 66
1
 10
0.0000
 20
0.0000
 30
0.0000
 40
0.0500
 41
0.0500
 70
0
  0
VERTEX
  8
0
 10
0.2379
 20
-0.4750
 30
0.0000
 42
1.0000
  0
VERTEX
  8
0
 10
0.2379
 20
-0.4250
 30
0.0000
  0
SEQEND
  8
0
  0
POLYLINE
  8
0
 66
1
 10
0.0000
 20
0.0000
 30
0.0000
 40
0.1000
 41
0.1000
 70
0
  0
VERTEX
  8
0
 10
-0.4500
 20
-0.2379
 30
0.0000
  0
VERTEX
  8
0
 10
-0.4500
 20
0.2379
 30
0.0000
  0
SEQEND
  8
0
  0
POLYLINE
  8
0
 66
1
 10
0.0000
 20
0.0000
 30
0.0000
 40
0.0500
 41
0.0500
 70
0
  0
VERTEX
  8
0
 10
-0.4250
 20
0.2379
 30
0.0000
 42
1.0000
  0
VERTEX
  8
0
 10
-0.4750
 20
0.2379
 30
0.0000
  0
SEQEND
  8
0
  0
POLYLINE
  8
0
 66
1
 10
0.0000
 20
0.0000
 30
0.0000
 40
0.0500
 41
0.0500
 70
0
  0
VERTEX
  8
0
 10
-0.4750
 20
-0.2379
 30
0.0000
 42
1.0000
  0
VERTEX
  8
0
 10
-0.4250
 20
-0.2379
 30
0.0000
  0
SEQEND
  8
0
  0
ENDBLK
  8
0
  0
BLOCK
  8
0
  2
OCTAGONV
 70
64
 10
0.0000
 20
0.0000
 30
0.0000
  3
OCTAGONV
  0
POLYLINE
  8
0
 66
1
 10
0.0000
 20
0.0000
 30
0.0000
 40
0.5000
 41
0.5000
 70
0
  0
VERTEX
  8
0
 10
-0.2500
 20
-0.1036
 30
0.0000
  0
VERTEX
  8
0
 10
-0.2500
 20
0.1036
 30
0.0000
  0
VERTEX
  8
0
 10
-0.1036
 20
0.2500
 30
0.0000
  0
VERTEX
  8
0
 10
0.1036
 20
0.2500
 30
0.0000
  0
VERTEX
  8
0
 10
0.2500
 20
0.1036
 30
0.0000
  0
VERTEX
  8
0
 10
0.2500
 20
-0.1036
 30
0.0000
  0
VERTEX
  8
0
 10
0.1036
 20
-0.2500
 30
0.0000
  0
VERTEX
  8
0
 10
-0.1036
 20
-0.2500
 30
0.0000
  0
VERTEX
  8
0
 10
-0.2500
 20
-0.1036
 30
0.0000
  0
VERTEX
  8
0
 10
-0.2500
 20
0.1036
 30
0.0000
  0
SEQEND
  8
0
  0
ENDBLK
  8
0
  0
BLOCK
  8
0
  2
SQUAREV
 70
64
 10
0.0000
 20
0.0000
 30
0.0000
  3
SQUAREV
  0
SOLID
  8
0
 10
-0.5000
 20
-0.5000
 30
0.0000
 11
0.5000
 21
-0.5000
 31
0.0000
 12
-0.5000
 22
0.5000
 32
0.0000
 13
0.5000
 23
0.5000
 33
0.0000
  0
ENDBLK
  8
0
  0
BLOCK
  8
0
  2
ROUNDV
 70
64
 10
0.0000
 20
0.0000
 30
0.0000
  3
ROUNDV
  0
POLYLINE
  8
0
 66
1
 10
0.0000
 20
0.0000
 30
0.0000
 40
0.5000
 41
0.5000
 70
0
  0
VERTEX
  8
0
 10
0.0000
 20
-0.2500
 30
0.0000
 42
1.0000
  0
VERTEX
  8
0
 10
0.0000
 20
0.2500
 30
0.0000
 42
1.0000
  0
VERTEX
  8
0
 10
0.0000
 20
-0.2500
 30
0.0000
  0
SEQEND
  8
0
  0
ENDBLK
  8
0
  0
BLOCK
  8
0
  2
ANNULUSV
 70
64
 10
0.0000
 20
0.0000
 30
0.0000
  3
ANNULUSV
  0
POLYLINE
  8
0
 66
1
 10
0.0000
 20
0.0000
 30
0.0000
 40
0.5000
 41
0.5000
 70
0
  0
VERTEX
  8
0
 10
0.0000
 20
-0.2500
 30
0.0000
 42
1.0000
  0
VERTEX
  8
0
 10
0.0000
 20
0.2500
 30
0.0000
 42
1.0000
  0
VERTEX
  8
0
 10
0.0000
 20
-0.2500
 30
0.0000
  0
SEQEND
  8
0
  0
ENDBLK
  8
0
  0
BLOCK
  8
0
  2
THERMALV
 70
64
 10
0.0000
 20
0.0000
 30
0.0000
  3
THERMALV
  0
POLYLINE
  8
0
 66
1
 10
0.0000
 20
0.0000
 30
0.0000
 40
0.1000
 41
0.1000
 70
0
  0
VERTEX
  8
0
 10
-0.2379
 20
0.4500
 30
0.0000
  0
VERTEX
  8
0
 10
0.2379
 20
0.4500
 30
0.0000
  0
SEQEND
  8
0
  0
POLYLINE
  8
0
 66
1
 10
0.0000
 20
0.0000
 30
0.0000
 40
0.0500
 41
0.0500
 70
0
  0
VERTEX
  8
0
 10
0.2379
 20
0.4250
 30
0.0000
 42
1.0000
  0
VERTEX
  8
0
 10
0.2379
 20
0.4750
 30
0.0000
  0
SEQEND
  8
0
  0
POLYLINE
  8
0
 66
1
 10
0.0000
 20
0.0000
 30
0.0000
 40
0.0500
 41
0.0500
 70
0
  0
VERTEX
  8
0
 10
-0.2379
 20
0.4750
 30
0.0000
 42
1.0000
  0
VERTEX
  8
0
 10
-0.2379
 20
0.4250
 30
0.0000
  0
SEQEND
  8
0
  0
POLYLINE
  8
0
 66
1
 10
0.0000
 20
0.0000
 30
0.0000
 40
0.1000
 41
0.1000
 70
0
  0
VERTEX
  8
0
 10
0.4500
 20
0.2379
 30
0.0000
  0
VERTEX
  8
0
 10
0.4500
 20
-0.2379
 30
0.0000
  0
SEQEND
  8
0
  0
POLYLINE
  8
0
 66
1
 10
0.0000
 20
0.0000
 30
0.0000
 40
0.0500
 41
0.0500
 70
0
  0
VERTEX
  8
0
 10
0.4250
 20
-0.2379
 30
0.0000
 42
1.0000
  0
VERTEX
  8
0
 10
0.4750
 20
-0.2379
 30
0.0000
  0
SEQEND
  8
0
  0
POLYLINE
  8
0
 66
1
 10
0.0000
 20
0.0000
 30
0.0000
 40
0.0500
 41
0.0500
 70
0
  0
VERTEX
  8
0
 10
0.4750
 20
0.2379
 30
0.0000
 42
1.0000
  0
VERTEX
  8
0
 10
0.4250
 20
0.2379
 30
0.0000
  0
SEQEND
  8
0
  0
POLYLINE
  8
0
 66
1
 10
0.0000
 20
0.0000
 30
0.0000
 40
0.1000
 41
0.1000
 70
0
  0
VERTEX
  8
0
 10
0.2379
 20
-0.4500
 30
0.0000
  0
VERTEX
  8
0
 10
-0.2379
 20
-0.4500
 30
0.0000
  0
SEQEND
  8
0
  0
POLYLINE
  8
0
 66
1
 10
0.0000
 20
0.0000
 30
0.0000
 40
0.0500
 41
0.0500
 70
0
  0
VERTEX
  8
0
 10
-0.2379
 20
-0.4250
 30
0.0000
 42
1.0000
  0
VERTEX
  8
0
 10
-0.2379
 20
-0.4750
 30
0.0000
  0
SEQEND
  8
0
  0
POLYLINE
  8
0
 66
1
 10
0.0000
 20
0.0000
 30
0.0000
 40
0.0500
 41
0.0500
 70
0
  0
VERTEX
  8
0
 10
0.2379
 20
-0.4750
 30
0.0000
 42
1.0000
  0
VERTEX
  8
0
 10
0.2379
 20
-0.4250
 30
0.0000
  0
SEQEND
  8
0
  0
POLYLINE
  8
0
 66
1
 10
0.0000
 20
0.0000
 30
0.0000
 40
0.1000
 41
0.1000
 70
0
  0
VERTEX
  8
0
 10
-0.4500
 20
-0.2379
 30
0.0000
  0
VERTEX
  8
0
 10
-0.4500
 20
0.2379
 30
0.0000
  0
SEQEND
  8
0
  0
POLYLINE
  8
0
 66
1
 10
0.0000
 20
0.0000
 30
0.0000
 40
0.0500
 41
0.0500
 70
0
  0
VERTEX
  8
0
 10
-0.4250
 20
0.2379
 30
0.0000
 42
1.0000
  0
VERTEX
  8
0
 10
-0.4750
 20
0.2379
 30
0.0000
  0
SEQEND
  8
0
  0
POLYLINE
  8
0
 66
1
 10
0.0000
 20
0.0000
 30
0.0000
 40
0.0500
 41
0.0500
 70
0
  0
VERTEX
  8
0
 10
-0.4750
 20
-0.2379
 30
0.0000
 42
1.0000
  0
VERTEX
  8
0
 10
-0.4250
 20
-0.2379
 30
0.0000
  0
SEQEND
  8
0
  0
ENDBLK
  8
0
  0
ENDSEC
  0
SECTION
  2
ENTITIES
  0
LINE
  8
254
 10
-17.2452
 20
29.3533
 30
0.0000
 11
-16.8787
 21
29.3809
 31
0.0000
  0
LINE
  8
254
 10
-16.8787
 20
29.3809
 30
0.0000
 11
-14.6597
 21
29.4543
 31
0.0000
  0
LINE
  8
254
 10
-14.6597
 20
29.4543
 30
0.0000
 11
-13.1753
 21
29.3983
 31
0.0000
  0
LINE
  8
254
 10
-13.1753
 20
29.3983
 30
0.0000
 11
-12.0680
 21
29.2905
 31
0.0000
  0
LINE
  8
254
 10
-12.0680
 20
29.2905
 30
0.0000
 11
-10.9714
 21
29.1193
 31
0.0000
  0
LINE
  8
254
 10
-10.9714
 20
29.1193
 30
0.0000
 11
-10.2488
 21
28.9667
 31
0.0000
  0
LINE
  8
254
 10
-10.2488
 20
28.9667
 30
0.0000
 11
-9.5348
 21
28.7813
 31
0.0000
  0
LINE
  8
254
 10
-9.5348
 20
28.7813
 30
0.0000
 11
-8.8308
 21
28.5610
 31
0.0000
  0
LINE
  8
254
 10
-8.8308
 20
28.5610
 30
0.0000
 11
-8.1384
 21
28.3040
 31
0.0000
  0
LINE
  8
254
 10
-8.1384
 20
28.3040
 30
0.0000
 11
-7.4591
 21
28.0084
 31
0.0000
  0
LINE
  8
254
 10
-7.4591
 20
28.0084
 30
0.0000
 11
-6.7944
 21
27.6724
 31
0.0000
  0
LINE
  8
254
 10
-6.7944
 20
27.6724
 30
0.0000
 11
-6.5135
 21
27.5212
 31
0.0000
  0
LINE
  8
254
 10
-6.5135
 20
27.5212
 30
0.0000
 11
-5.6972
 21
27.0312
 31
0.0000
  0
LINE
  8
254
 10
-5.6972
 20
27.0312
 30
0.0000
 11
-4.6649
 21
26.3012
 31
0.0000
  0
LINE
  8
254
 10
-4.6649
 20
26.3012
 30
0.0000
 11
-3.4533
 21
25.2861
 31
0.0000
  0
LINE
  8
254
 10
-3.4533
 20
25.2861
 30
0.0000
 11
0.0162
 21
21.5901
 31
0.0000
  0
LINE
  8
254
 10
0.0162
 20
21.5901
 30
0.0000
 11
3.8508
 21
25.6101
 31
0.0000
  0
LINE
  8
254
 10
3.8508
 20
25.6101
 30
0.0000
 11
5.2280
 21
26.6937
 31
0.0000
  0
LINE
  8
254
 10
5.2280
 20
26.6937
 30
0.0000
 11
6.2110
 21
27.3342
 31
0.0000
  0
LINE
  8
254
 10
6.2110
 20
27.3342
 30
0.0000
 11
6.5542
 21
27.5353
 31
0.0000
  0
LINE
  8
254
 10
6.5542
 20
27.5353
 30
0.0000
 11
6.9022
 21
27.7247
 31
0.0000
  0
LINE
  8
254
 10
6.9022
 20
27.7247
 30
0.0000
 11
7.2548
 21
27.9028
 31
0.0000
  0
LINE
  8
254
 10
7.2548
 20
27.9028
 30
0.0000
 11
7.6117
 21
28.0697
 31
0.0000
  0
LINE
  8
254
 10
7.6117
 20
28.0697
 30
0.0000
 11
7.9726
 21
28.2257
 31
0.0000
  0
LINE
  8
254
 10
7.9726
 20
28.2257
 30
0.0000
 11
8.7058
 21
28.5062
 31
0.0000
  0
LINE
  8
254
 10
8.7058
 20
28.5062
 30
0.0000
 11
9.4526
 21
28.7461
 31
0.0000
  0
LINE
  8
254
 10
9.4526
 20
28.7461
 30
0.0000
 11
10.2111
 21
28.9476
 31
0.0000
  0
LINE
  8
254
 10
10.2111
 20
28.9476
 30
0.0000
 11
10.9796
 21
29.1125
 31
0.0000
  0
LINE
  8
254
 10
10.9796
 20
29.1125
 30
0.0000
 11
11.7561
 21
29.2428
 31
0.0000
  0
LINE
  8
254
 10
11.7561
 20
29.2428
 30
0.0000
 11
12.5388
 21
29.3406
 31
0.0000
  0
LINE
  8
254
 10
12.5388
 20
29.3406
 30
0.0000
 11
13.7205
 21
29.4306
 31
0.0000
  0
LINE
  8
254
 10
13.7205
 20
29.4306
 30
0.0000
 11
15.3006
 21
29.4552
 31
0.0000
  0
LINE
  8
254
 10
15.3006
 20
29.4552
 30
0.0000
 11
17.2625
 21
29.3551
 31
0.0000
  0
LINE
  8
254
 10
17.2625
 20
29.3551
 30
0.0000
 11
17.6449
 21
29.3196
 31
0.0000
  0
LINE
  8
254
 10
17.6449
 20
29.3196
 30
0.0000
 11
18.0254
 21
29.2726
 31
0.0000
  0
LINE
  8
254
 10
18.0254
 20
29.2726
 30
0.0000
 11
18.4037
 21
29.2145
 31
0.0000
  0
LINE
  8
254
 10
18.4037
 20
29.2145
 30
0.0000
 11
19.1533
 21
29.0655
 31
0.0000
  0
LINE
  8
254
 10
19.1533
 20
29.0655
 30
0.0000
 11
19.8922
 21
28.8741
 31
0.0000
  0
LINE
  8
254
 10
19.8922
 20
28.8741
 30
0.0000
 11
20.6191
 21
28.6420
 31
0.0000
  0
LINE
  8
254
 10
20.6191
 20
28.6420
 30
0.0000
 11
21.3325
 21
28.3708
 31
0.0000
  0
LINE
  8
254
 10
21.3325
 20
28.3708
 30
0.0000
 11
22.0310
 21
28.0621
 31
0.0000
  0
LINE
  8
254
 10
22.0310
 20
28.0621
 30
0.0000
 11
22.7132
 21
27.7175
 31
0.0000
  0
LINE
  8
254
 10
22.7132
 20
27.7175
 30
0.0000
 11
23.3776
 21
27.3386
 31
0.0000
  0
LINE
  8
254
 10
23.3776
 20
27.3386
 30
0.0000
 11
24.0229
 21
26.9271
 31
0.0000
  0
LINE
  8
254
 10
24.0229
 20
26.9271
 30
0.0000
 11
24.6476
 21
26.4845
 31
0.0000
  0
LINE
  8
254
 10
24.6476
 20
26.4845
 30
0.0000
 11
25.2503
 21
26.0125
 31
0.0000
  0
LINE
  8
254
 10
25.2503
 20
26.0125
 30
0.0000
 11
25.8296
 21
25.5126
 31
0.0000
  0
LINE
  8
254
 10
25.8296
 20
25.5126
 30
0.0000
 11
26.3841
 21
24.9866
 31
0.0000
  0
LINE
  8
254
 10
26.3841
 20
24.9866
 30
0.0000
 11
26.9123
 21
24.4359
 31
0.0000
  0
LINE
  8
254
 10
26.9123
 20
24.4359
 30
0.0000
 11
27.2279
 21
24.0886
 31
0.0000
  0
LINE
  8
254
 10
27.2279
 20
24.0886
 30
0.0000
 11
27.5328
 21
23.7332
 31
0.0000
  0
LINE
  8
254
 10
27.5328
 20
23.7332
 30
0.0000
 11
27.8270
 21
23.3700
 31
0.0000
  0
LINE
  8
254
 10
27.8270
 20
23.3700
 30
0.0000
 11
28.1106
 21
22.9994
 31
0.0000
  0
LINE
  8
254
 10
28.1106
 20
22.9994
 30
0.0000
 11
28.3836
 21
22.6215
 31
0.0000
  0
LINE
  8
254
 10
28.3836
 20
22.6215
 30
0.0000
 11
28.6463
 21
22.2368
 31
0.0000
  0
LINE
  8
254
 10
28.6463
 20
22.2368
 30
0.0000
 11
28.8985
 21
21.8454
 31
0.0000
  0
LINE
  8
254
 10
28.8985
 20
21.8454
 30
0.0000
 11
29.1405
 21
21.4478
 31
0.0000
  0
LINE
  8
254
 10
29.1405
 20
21.4478
 30
0.0000
 11
29.3724
 21
21.0441
 31
0.0000
  0
LINE
  8
254
 10
29.3724
 20
21.0441
 30
0.0000
 11
29.5941
 21
20.6347
 31
0.0000
  0
LINE
  8
254
 10
29.5941
 20
20.6347
 30
0.0000
 11
29.8058
 21
20.2198
 31
0.0000
  0
LINE
  8
254
 10
29.8058
 20
20.2198
 30
0.0000
 11
30.1996
 21
19.3750
 31
0.0000
  0
LINE
  8
254
 10
30.1996
 20
19.3750
 30
0.0000
 11
30.5542
 21
18.5119
 31
0.0000
  0
LINE
  8
254
 10
30.5542
 20
18.5119
 30
0.0000
 11
30.8705
 21
17.6330
 31
0.0000
  0
LINE
  8
254
 10
30.8705
 20
17.6330
 30
0.0000
 11
31.1491
 21
16.7406
 31
0.0000
  0
LINE
  8
254
 10
31.1491
 20
16.7406
 30
0.0000
 11
31.3907
 21
15.8370
 31
0.0000
  0
LINE
  8
254
 10
31.3907
 20
15.8370
 30
0.0000
 11
31.5959
 21
14.9245
 31
0.0000
  0
LINE
  8
254
 10
31.5959
 20
14.9245
 30
0.0000
 11
31.7654
 21
14.0056
 31
0.0000
  0
LINE
  8
254
 10
31.7654
 20
14.0056
 30
0.0000
 11
31.8999
 21
13.0825
 31
0.0000
  0
LINE
  8
254
 10
31.8999
 20
13.0825
 30
0.0000
 11
32.0000
 21
12.1576
 31
0.0000
  0
LINE
  8
254
 10
32.0000
 20
12.1576
 30
0.0000
 11
32.0000
 21
8.1056
 31
0.0000
  0
LINE
  8
254
 10
32.0000
 20
8.1056
 30
0.0000
 11
31.9394
 21
7.5177
 31
0.0000
  0
LINE
  8
254
 10
31.9394
 20
7.5177
 30
0.0000
 11
31.8650
 21
6.9326
 31
0.0000
  0
LINE
  8
254
 10
31.8650
 20
6.9326
 30
0.0000
 11
31.7770
 21
6.3504
 31
0.0000
  0
LINE
  8
254
 10
31.7770
 20
6.3504
 30
0.0000
 11
31.6758
 21
5.7711
 31
0.0000
  0
LINE
  8
254
 10
31.6758
 20
5.7711
 30
0.0000
 11
31.5617
 21
5.1948
 31
0.0000
  0
LINE
  8
254
 10
31.5617
 20
5.1948
 30
0.0000
 11
31.4350
 21
4.6216
 31
0.0000
  0
LINE
  8
254
 10
31.4350
 20
4.6216
 30
0.0000
 11
31.2960
 21
4.0515
 31
0.0000
  0
LINE
  8
254
 10
31.2960
 20
4.0515
 30
0.0000
 11
31.1451
 21
3.4847
 31
0.0000
  0
LINE
  8
254
 10
31.1451
 20
3.4847
 30
0.0000
 11
30.9824
 21
2.9211
 31
0.0000
  0
LINE
  8
254
 10
30.9824
 20
2.9211
 30
0.0000
 11
30.8085
 21
2.3608
 31
0.0000
  0
LINE
  8
254
 10
30.8085
 20
2.3608
 30
0.0000
 11
30.6235
 21
1.8039
 31
0.0000
  0
LINE
  8
254
 10
30.6235
 20
1.8039
 30
0.0000
 11
30.2216
 21
0.7006
 31
0.0000
  0
LINE
  8
254
 10
30.2216
 20
0.7006
 30
0.0000
 11
29.7794
 21
-0.3882
 31
0.0000
  0
LINE
  8
254
 10
29.7794
 20
-0.3882
 30
0.0000
 11
29.2993
 21
-1.4620
 31
0.0000
  0
LINE
  8
254
 10
29.2993
 20
-1.4620
 30
0.0000
 11
28.7838
 21
-2.5204
 31
0.0000
  0
LINE
  8
254
 10
28.7838
 20
-2.5204
 30
0.0000
 11
28.2354
 21
-3.5627
 31
0.0000
  0
LINE
  8
254
 10
28.2354
 20
-3.5627
 30
0.0000
 11
27.6567
 21
-4.5884
 31
0.0000
  0
LINE
  8
254
 10
27.6567
 20
-4.5884
 30
0.0000
 11
26.7372
 21
-6.0947
 31
0.0000
  0
LINE
  8
254
 10
26.7372
 20
-6.0947
 30
0.0000
 11
25.7634
 21
-7.5606
 31
0.0000
  0
LINE
  8
254
 10
25.7634
 20
-7.5606
 30
0.0000
 11
25.2678
 21
-8.2596
 31
0.0000
  0
LINE
  8
254
 10
25.2678
 20
-8.2596
 30
0.0000
 11
24.7624
 21
-8.9506
 31
0.0000
  0
LINE
  8
254
 10
24.7624
 20
-8.9506
 30
0.0000
 11
24.2476
 21
-9.6339
 31
0.0000
  0
LINE
  8
254
 10
24.2476
 20
-9.6339
 30
0.0000
 11
23.7235
 21
-10.3096
 31
0.0000
  0
LINE
  8
254
 10
23.7235
 20
-10.3096
 30
0.0000
 11
23.1905
 21
-10.9779
 31
0.0000
  0
LINE
  8
254
 10
23.1905
 20
-10.9779
 30
0.0000
 11
22.0990
 21
-12.2928
 31
0.0000
  0
LINE
  8
254
 10
22.0990
 20
-12.2928
 30
0.0000
 11
20.9751
 21
-13.5799
 31
0.0000
  0
LINE
  8
254
 10
20.9751
 20
-13.5799
 30
0.0000
 11
19.8211
 21
-14.8405
 31
0.0000
  0
LINE
  8
254
 10
19.8211
 20
-14.8405
 30
0.0000
 11
18.6393
 21
-16.0758
 31
0.0000
  0
LINE
  8
254
 10
18.6393
 20
-16.0758
 30
0.0000
 11
17.4319
 21
-17.2871
 31
0.0000
  0
LINE
  8
254
 10
17.4319
 20
-17.2871
 30
0.0000
 11
15.5777
 21
-19.0618
 31
0.0000
  0
LINE
  8
254
 10
15.5777
 20
-19.0618
 30
0.0000
 11
13.6785
 21
-20.7898
 31
0.0000
  0
LINE
  8
254
 10
13.6785
 20
-20.7898
 30
0.0000
 11
10.4337
 21
-23.5772
 31
0.0000
  0
LINE
  8
254
 10
10.4337
 20
-23.5772
 30
0.0000
 11
8.4513
 21
-25.2013
 31
0.0000
  0
LINE
  8
254
 10
8.4513
 20
-25.2013
 30
0.0000
 11
0.0167
 21
-31.4990
 31
0.0000
  0
LINE
  8
254
 10
0.0167
 20
-31.4990
 30
0.0000
 11
-4.4650
 21
-28.2383
 31
0.0000
  0
LINE
  8
254
 10
-4.4650
 20
-28.2383
 30
0.0000
 11
-7.1134
 21
-26.2189
 31
0.0000
  0
LINE
  8
254
 10
-7.1134
 20
-26.2189
 30
0.0000
 11
-8.8556
 21
-24.8418
 31
0.0000
  0
LINE
  8
254
 10
-8.8556
 20
-24.8418
 30
0.0000
 11
-10.5755
 21
-23.4377
 31
0.0000
  0
LINE
  8
254
 10
-10.5755
 20
-23.4377
 30
0.0000
 11
-12.2700
 21
-22.0042
 31
0.0000
  0
LINE
  8
254
 10
-12.2700
 20
-22.0042
 30
0.0000
 11
-13.9360
 21
-20.5394
 31
0.0000
  0
LINE
  8
254
 10
-13.9360
 20
-20.5394
 30
0.0000
 11
-14.7574
 21
-19.7945
 31
0.0000
  0
LINE
  8
254
 10
-14.7574
 20
-19.7945
 30
0.0000
 11
-15.5704
 21
-19.0409
 31
0.0000
  0
LINE
  8
254
 10
-15.5704
 20
-19.0409
 30
0.0000
 11
-16.3748
 21
-18.2784
 31
0.0000
  0
LINE
  8
254
 10
-16.3748
 20
-18.2784
 30
0.0000
 11
-17.1701
 21
-17.5067
 31
0.0000
  0
LINE
  8
254
 10
-17.1701
 20
-17.5067
 30
0.0000
 11
-17.9560
 21
-16.7255
 31
0.0000
  0
LINE
  8
254
 10
-17.9560
 20
-16.7255
 30
0.0000
 11
-18.7321
 21
-15.9345
 31
0.0000
  0
LINE
  8
254
 10
-18.7321
 20
-15.9345
 30
0.0000
 11
-19.4979
 21
-15.1335
 31
0.0000
  0
LINE
  8
254
 10
-19.4979
 20
-15.1335
 30
0.0000
 11
-20.2531
 21
-14.3223
 31
0.0000
  0
LINE
  8
254
 10
-20.2531
 20
-14.3223
 30
0.0000
 11
-20.9973
 21
-13.5005
 31
0.0000
  0
LINE
  8
254
 10
-20.9973
 20
-13.5005
 30
0.0000
 11
-21.7301
 21
-12.6678
 31
0.0000
  0
LINE
  8
254
 10
-21.7301
 20
-12.6678
 30
0.0000
 11
-22.4512
 21
-11.8241
 31
0.0000
  0
LINE
  8
254
 10
-22.4512
 20
-11.8241
 30
0.0000
 11
-23.1601
 21
-10.9690
 31
0.0000
  0
LINE
  8
254
 10
-23.1601
 20
-10.9690
 30
0.0000
 11
-23.8564
 21
-10.1022
 31
0.0000
  0
LINE
  8
254
 10
-23.8564
 20
-10.1022
 30
0.0000
 11
-24.7026
 21
-8.9915
 31
0.0000
  0
LINE
  8
254
 10
-24.7026
 20
-8.9915
 30
0.0000
 11
-25.5224
 21
-7.8556
 31
0.0000
  0
LINE
  8
254
 10
-25.5224
 20
-7.8556
 30
0.0000
 11
-26.3122
 21
-6.6953
 31
0.0000
  0
LINE
  8
254
 10
-26.3122
 20
-6.6953
 30
0.0000
 11
-27.0680
 21
-5.5112
 31
0.0000
  0
LINE
  8
254
 10
-27.0680
 20
-5.5112
 30
0.0000
 11
-27.4321
 21
-4.9103
 31
0.0000
  0
LINE
  8
254
 10
-27.4321
 20
-4.9103
 30
0.0000
 11
-27.7862
 21
-4.3037
 31
0.0000
  0
LINE
  8
254
 10
-27.7862
 20
-4.3037
 30
0.0000
 11
-28.1300
 21
-3.6914
 31
0.0000
  0
LINE
  8
254
 10
-28.1300
 20
-3.6914
 30
0.0000
 11
-28.4628
 21
-3.0735
 31
0.0000
  0
LINE
  8
254
 10
-28.4628
 20
-3.0735
 30
0.0000
 11
-28.7844
 21
-2.4501
 31
0.0000
  0
LINE
  8
254
 10
-28.7844
 20
-2.4501
 30
0.0000
 11
-29.0942
 21
-1.8212
 31
0.0000
  0
LINE
  8
254
 10
-29.0942
 20
-1.8212
 30
0.0000
 11
-29.3916
 21
-1.1869
 31
0.0000
  0
LINE
  8
254
 10
-29.3916
 20
-1.1869
 30
0.0000
 11
-29.6764
 21
-0.5473
 31
0.0000
  0
LINE
  8
254
 10
-29.6764
 20
-0.5473
 30
0.0000
 11
-29.9478
 21
0.0975
 31
0.0000
  0
LINE
  8
254
 10
-29.9478
 20
0.0975
 30
0.0000
 11
-30.2056
 21
0.7476
 31
0.0000
  0
LINE
  8
254
 10
-30.2056
 20
0.7476
 30
0.0000
 11
-30.4492
 21
1.4027
 31
0.0000
  0
LINE
  8
254
 10
-30.4492
 20
1.4027
 30
0.0000
 11
-30.6781
 21
2.0629
 31
0.0000
  0
LINE
  8
254
 10
-30.6781
 20
2.0629
 30
0.0000
 11
-30.8919
 21
2.7280
 31
0.0000
  0
LINE
  8
254
 10
-30.8919
 20
2.7280
 30
0.0000
 11
-31.0901
 21
3.3980
 31
0.0000
  0
LINE
  8
254
 10
-31.0901
 20
3.3980
 30
0.0000
 11
-31.2721
 21
4.0728
 31
0.0000
  0
LINE
  8
254
 10
-31.2721
 20
4.0728
 30
0.0000
 11
-31.4376
 21
4.7523
 31
0.0000
  0
LINE
  8
254
 10
-31.4376
 20
4.7523
 30
0.0000
 11
-31.5861
 21
5.4366
 31
0.0000
  0
LINE
  8
254
 10
-31.5861
 20
5.4366
 30
0.0000
 11
-31.7171
 21
6.1254
 31
0.0000
  0
LINE
  8
254
 10
-31.7171
 20
6.1254
 30
0.0000
 11
-31.8300
 21
6.8188
 31
0.0000
  0
LINE
  8
254
 10
-31.8300
 20
6.8188
 30
0.0000
 11
-31.9245
 21
7.5166
 31
0.0000
  0
LINE
  8
254
 10
-31.9245
 20
7.5166
 30
0.0000
 11
-32.0000
 21
8.2188
 31
0.0000
  0
LINE
  8
254
 10
-32.0000
 20
8.2188
 30
0.0000
 11
-32.0000
 21
11.9121
 31
0.0000
  0
LINE
  8
254
 10
-32.0000
 20
11.9121
 30
0.0000
 11
-31.8670
 21
13.1401
 31
0.0000
  0
LINE
  8
254
 10
-31.8670
 20
13.1401
 30
0.0000
 11
-31.6762
 21
14.3631
 31
0.0000
  0
LINE
  8
254
 10
-31.6762
 20
14.3631
 30
0.0000
 11
-31.4255
 21
15.5760
 31
0.0000
  0
LINE
  8
254
 10
-31.4255
 20
15.5760
 30
0.0000
 11
-31.1126
 21
16.7738
 31
0.0000
  0
LINE
  8
254
 10
-31.1126
 20
16.7738
 30
0.0000
 11
-30.7354
 21
17.9518
 31
0.0000
  0
LINE
  8
254
 10
-30.7354
 20
17.9518
 30
0.0000
 11
-30.4471
 21
18.7236
 31
0.0000
  0
LINE
  8
254
 10
-30.4471
 20
18.7236
 30
0.0000
 11
-30.1287
 21
19.4829
 31
0.0000
  0
LINE
  8
254
 10
-30.1287
 20
19.4829
 30
0.0000
 11
-29.7794
 21
20.2281
 31
0.0000
  0
LINE
  8
254
 10
-29.7794
 20
20.2281
 30
0.0000
 11
-29.3986
 21
20.9580
 31
0.0000
  0
LINE
  8
254
 10
-29.3986
 20
20.9580
 30
0.0000
 11
-28.9857
 21
21.6709
 31
0.0000
  0
LINE
  8
254
 10
-28.9857
 20
21.6709
 30
0.0000
 11
-28.5400
 21
22.3654
 31
0.0000
  0
LINE
  8
254
 10
-28.5400
 20
22.3654
 30
0.0000
 11
-28.0609
 21
23.0401
 31
0.0000
  0
LINE
  8
254
 10
-28.0609
 20
23.0401
 30
0.0000
 11
-27.7919
 21
23.3924
 31
0.0000
  0
LINE
  8
254
 10
-27.7919
 20
23.3924
 30
0.0000
 11
-27.5134
 21
23.7380
 31
0.0000
  0
LINE
  8
254
 10
-27.5134
 20
23.7380
 30
0.0000
 11
-27.2255
 21
24.0766
 31
0.0000
  0
LINE
  8
254
 10
-27.2255
 20
24.0766
 30
0.0000
 11
-26.9284
 21
24.4079
 31
0.0000
  0
LINE
  8
254
 10
-26.9284
 20
24.4079
 30
0.0000
 11
-26.6224
 21
24.7316
 31
0.0000
  0
LINE
  8
254
 10
-26.6224
 20
24.7316
 30
0.0000
 11
-26.3078
 21
25.0474
 31
0.0000
  0
LINE
  8
254
 10
-26.3078
 20
25.0474
 30
0.0000
 11
-25.9848
 21
25.3548
 31
0.0000
  0
LINE
  8
254
 10
-25.9848
 20
25.3548
 30
0.0000
 11
-25.6537
 21
25.6537
 31
0.0000
  0
LINE
  8
254
 10
-25.6537
 20
25.6537
 30
0.0000
 11
-25.3146
 21
25.9436
 31
0.0000
  0
LINE
  8
254
 10
-25.3146
 20
25.9436
 30
0.0000
 11
-24.9678
 21
26.2242
 31
0.0000
  0
LINE
  8
254
 10
-24.9678
 20
26.2242
 30
0.0000
 11
-24.6136
 21
26.4952
 31
0.0000
  0
LINE
  8
254
 10
-24.6136
 20
26.4952
 30
0.0000
 11
-24.2523
 21
26.7562
 31
0.0000
  0
LINE
  8
254
 10
-24.2523
 20
26.7562
 30
0.0000
 11
-23.8839
 21
27.0070
 31
0.0000
  0
LINE
  8
254
 10
-23.8839
 20
27.0070
 30
0.0000
 11
-23.5089
 21
27.2472
 31
0.0000
  0
LINE
  8
254
 10
-23.5089
 20
27.2472
 30
0.0000
 11
-23.1275
 21
27.4765
 31
0.0000
  0
LINE
  8
254
 10
-23.1275
 20
27.4765
 30
0.0000
 11
-22.7398
 21
27.6945
 31
0.0000
  0
LINE
  8
254
 10
-22.7398
 20
27.6945
 30
0.0000
 11
-22.3461
 21
27.9009
 31
0.0000
  0
LINE
  8
254
 10
-22.3461
 20
27.9009
 30
0.0000
 11
-21.9467
 21
28.0954
 31
0.0000
  0
LINE
  8
254
 10
-21.9467
 20
28.0954
 30
0.0000
 11
-21.5419
 21
28.2776
 31
0.0000
  0
LINE
  8
254
 10
-21.5419
 20
28.2776
 30
0.0000
 11
-21.1318
 21
28.4473
 31
0.0000
  0
LINE
  8
254
 10
-21.1318
 20
28.4473
 30
0.0000
 11
-20.7167
 21
28.6040
 31
0.0000
  0
LINE
  8
254
 10
-20.7167
 20
28.6040
 30
0.0000
 11
-20.2968
 21
28.7475
 31
0.0000
  0
LINE
  8
254
 10
-20.2968
 20
28.7475
 30
0.0000
 11
-19.8725
 21
28.8774
 31
0.0000
  0
LINE
  8
254
 10
-19.8725
 20
28.8774
 30
0.0000
 11
-19.4438
 21
28.9934
 31
0.0000
  0
LINE
  8
254
 10
-19.4438
 20
28.9934
 30
0.0000
 11
-19.0112
 21
29.0952
 31
0.0000
  0
LINE
  8
254
 10
-19.0112
 20
29.0952
 30
0.0000
 11
-18.5747
 21
29.1824
 31
0.0000
  0
LINE
  8
254
 10
-18.5747
 20
29.1824
 30
0.0000
 11
-18.1348
 21
29.2547
 31
0.0000
  0
LINE
  8
254
 10
-18.1348
 20
29.2547
 30
0.0000
 11
-17.6915
 21
29.3118
 31
0.0000
  0
LINE
  8
254
 10
-17.6915
 20
29.3118
 30
0.0000
 11
-17.2452
 21
29.3533
 31
0.0000
  0
ENDSEC
  0
EOF
