999
dxflib 2.2.0.0
  0
SECTION
  2
HEADER
  9
$ACADVER
  1
AC1015
  9
$HANDSEED
  5
FFFF
  9
$INSUNITS
 70
4
  9
$DIMEXE
 40
1.25
  9
$TEXTSTYLE
  7
Standard
  9
$LIMMIN
 10
0.0
 20
0.0
  0
ENDSEC
  0
SECTION
  2
TABLES
  0
TABLE
  2
VPORT
  5
8
100
AcDbSymbolTable
 70
1
  0
VPORT
  5
30
100
AcDbSymbolTableRecord
100
AcDbViewportTableRecord
  2
*Active
 70
0
 10
0.0
 20
0.0
 11
1.0
 21
1.0
 12
286.30555555555549
 22
148.5
 13
0.0
 23
0.0
 14
10.0
 24
10.0
 15
10.0
 25
10.0
 16
0.0
 26
0.0
 36
1.0
 17
0.0
 27
0.0
 37
0.0
 40
297.0
 41
1.92798353909465
 42
50.0
 43
0.0
 44
0.0
 50
0.0
 51
0.0
 71
0
 72
100
 73
1
 74
3
 75
1
 76
1
 77
0
 78
0
281
0
 65
1
110
0.0
120
0.0
130
0.0
111
1.0
121
0.0
131
0.0
112
0.0
122
1.0
132
0.0
 79
0
146
0.0
  0
ENDTAB
  0
TABLE
  2
LTYPE
  5
5
100
AcDbSymbolTable
 70
25
  0
LTYPE
  5
14
100
AcDbSymbolTableRecord
100
AcDbLinetypeTableRecord
  2
BYBLOCK
 70
0
  3

 72
65
 73
0
 40
0.0
  0
LTYPE
  5
15
100
AcDbSymbolTableRecord
100
AcDbLinetypeTableRecord
  2
BYLAYER
 70
0
  3

 72
65
 73
0
 40
0.0
  0
LTYPE
  5
16
100
AcDbSymbolTableRecord
100
AcDbLinetypeTableRecord
  2
CONTINUOUS
 70
0
  3
Solid line
 72
65
 73
0
 40
0.0
  0
LTYPE
  5
31
100
AcDbSymbolTableRecord
100
AcDbLinetypeTableRecord
  2
ACAD_ISO02W100
 70
0
  3
ISO Dashed __ __ __ __ __ __ __ __ __ __ _
 72
65
 73
2
 40
15.0
 49
12.0
 74
0
 49
-3.0
 74
0
  0
LTYPE
  5
32
100
AcDbSymbolTableRecord
100
AcDbLinetypeTableRecord
  2
ACAD_ISO03W100
 70
0
  3
ISO Dashed with Distance __    __    __    _
 72
65
 73
2
 40
30.0
 49
12.0
 74
0
 49
-18.0
 74
0
  0
LTYPE
  5
33
100
AcDbSymbolTableRecord
100
AcDbLinetypeTableRecord
  2
ACAD_ISO04W100
 70
0
  3
ISO Long Dashed Dotted ____ . ____ . __
 72
65
 73
4
 40
30.0
 49
24.0
 74
0
 49
-3.0
 74
0
 49
0.0
 74
0
 49
-3.0
 74
0
  0
LTYPE
  5
34
100
AcDbSymbolTableRecord
100
AcDbLinetypeTableRecord
  2
ACAD_ISO05W100
 70
0
  3
ISO Long Dashed Double Dotted ____ .. __
 72
65
 73
6
 40
33.0
 49
24.0
 74
0
 49
-3.0
 74
0
 49
0.0
 74
0
 49
-3.0
 74
0
 49
0.0
 74
0
 49
-3.0
 74
0
  0
LTYPE
  5
35
100
AcDbSymbolTableRecord
100
AcDbLinetypeTableRecord
  2
BORDER
 70
0
  3
Border __ __ . __ __ . __ __ . __ __ . __ __ .
 72
65
 73
6
 40
44.450000000000003
 49
12.699999999999999
 74
0
 49
-6.3499999999999996
 74
0
 49
12.699999999999999
 74
0
 49
-6.3499999999999996
 74
0
 49
0.0
 74
0
 49
-6.3499999999999996
 74
0
  0
LTYPE
  5
36
100
AcDbSymbolTableRecord
100
AcDbLinetypeTableRecord
  2
BORDER2
 70
0
  3
Border (.5x) __.__.__.__.__.__.__.__.__.__.__.
 72
65
 73
6
 40
22.225000000000001
 49
6.3499999999999996
 74
0
 49
-3.1749999999999998
 74
0
 49
6.3499999999999996
 74
0
 49
-3.1749999999999998
 74
0
 49
0.0
 74
0
 49
-3.1749999999999998
 74
0
  0
LTYPE
  5
37
100
AcDbSymbolTableRecord
100
AcDbLinetypeTableRecord
  2
BORDERX2
 70
0
  3
Border (2x) ____  ____  .  ____  ____  .  ___
 72
65
 73
6
 40
88.900000000000006
 49
25.399999999999999
 74
0
 49
-12.699999999999999
 74
0
 49
25.399999999999999
 74
0
 49
-12.699999999999999
 74
0
 49
0.0
 74
0
 49
-12.699999999999999
 74
0
  0
LTYPE
  5
38
100
AcDbSymbolTableRecord
100
AcDbLinetypeTableRecord
  2
CENTER
 70
0
  3
Center ____ _ ____ _ ____ _ ____ _ ____ _ ____
 72
65
 73
4
 40
50.799999999999997
 49
31.75
 74
0
 49
-6.3499999999999996
 74
0
 49
6.3499999999999996
 74
0
 49
-6.3499999999999996
 74
0
  0
LTYPE
  5
39
100
AcDbSymbolTableRecord
100
AcDbLinetypeTableRecord
  2
CENTER2
 70
0
  3
Center (.5x) ___ _ ___ _ ___ _ ___ _ ___ _ ___
 72
65
 73
4
 40
28.574999999999999
 49
19.050000000000001
 74
0
 49
-3.1749999999999998
 74
0
 49
3.1749999999999998
 74
0
 49
-3.1749999999999998
 74
0
  0
LTYPE
  5
3A
100
AcDbSymbolTableRecord
100
AcDbLinetypeTableRecord
  2
CENTERX2
 70
0
  3
Center (2x) ________  __  ________  __  _____
 72
65
 73
4
 40
101.59999999999999
 49
63.5
 74
0
 49
-12.699999999999999
 74
0
 49
12.699999999999999
 74
0
 49
-12.699999999999999
 74
0
  0
LTYPE
  5
3B
100
AcDbSymbolTableRecord
100
AcDbLinetypeTableRecord
  2
DASHDOT
 70
0
  3
Dash dot __ . __ . __ . __ . __ . __ . __ . __
 72
65
 73
4
 40
25.399999999999999
 49
12.699999999999999
 74
0
 49
-6.3499999999999996
 74
0
 49
0.0
 74
0
 49
-6.3499999999999996
 74
0
  0
LTYPE
  5
3C
100
AcDbSymbolTableRecord
100
AcDbLinetypeTableRecord
  2
DASHDOT2
 70
0
  3
Dash dot (.5x) _._._._._._._._._._._._._._._.
 72
65
 73
4
 40
12.699999999999999
 49
6.3499999999999996
 74
0
 49
-3.1749999999999998
 74
0
 49
0.0
 74
0
 49
-3.1749999999999998
 74
0
  0
LTYPE
  5
3D
100
AcDbSymbolTableRecord
100
AcDbLinetypeTableRecord
  2
DASHDOTX2
 70
0
  3
Dash dot (2x) ____  .  ____  .  ____  .  ___
 72
65
 73
4
 40
50.799999999999997
 49
25.399999999999999
 74
0
 49
-12.699999999999999
 74
0
 49
0.0
 74
0
 49
-12.699999999999999
 74
0
  0
LTYPE
  5
3E
100
AcDbSymbolTableRecord
100
AcDbLinetypeTableRecord
  2
DASHED
 70
0
  3
Dashed __ __ __ __ __ __ __ __ __ __ __ __ __ _
 72
65
 73
2
 40
19.050000000000001
 49
12.699999999999999
 74
0
 49
-6.3499999999999996
 74
0
  0
LTYPE
  5
3F
100
AcDbSymbolTableRecord
100
AcDbLinetypeTableRecord
  2
DASHED2
 70
0
  3
Dashed (.5x) _ _ _ _ _ _ _ _ _ _ _ _ _ _ _ _ _
 72
65
 73
2
 40
9.5250000000000004
 49
6.3499999999999996
 74
0
 49
-3.1749999999999998
 74
0
  0
LTYPE
  5
40
100
AcDbSymbolTableRecord
100
AcDbLinetypeTableRecord
  2
DASHEDX2
 70
0
  3
Dashed (2x) ____  ____  ____  ____  ____  ___
 72
65
 73
2
 40
38.100000000000001
 49
25.399999999999999
 74
0
 49
-12.699999999999999
 74
0
  0
LTYPE
  5
41
100
AcDbSymbolTableRecord
100
AcDbLinetypeTableRecord
  2
DIVIDE
 70
0
  3
Divide ____ . . ____ . . ____ . . ____ . . ____
 72
65
 73
6
 40
31.75
 49
12.699999999999999
 74
0
 49
-6.3499999999999996
 74
0
 49
0.0
 74
0
 49
-6.3499999999999996
 74
0
 49
0.0
 74
0
 49
-6.3499999999999996
 74
0
  0
LTYPE
  5
42
100
AcDbSymbolTableRecord
100
AcDbLinetypeTableRecord
  2
DIVIDE2
 70
0
  3
Divide (.5x) __..__..__..__..__..__..__..__.._
 72
65
 73
6
 40
15.875
 49
6.3499999999999996
 74
0
 49
-3.1749999999999998
 74
0
 49
0.0
 74
0
 49
-3.1749999999999998
 74
0
 49
0.0
 74
0
 49
-3.1749999999999998
 74
0
  0
LTYPE
  5
43
100
AcDbSymbolTableRecord
100
AcDbLinetypeTableRecord
  2
DIVIDEX2
 70
0
  3
Divide (2x) ________  .  .  ________  .  .  _
 72
65
 73
6
 40
63.5
 49
25.399999999999999
 74
0
 49
-12.699999999999999
 74
0
 49
0.0
 74
0
 49
-12.699999999999999
 74
0
 49
0.0
 74
0
 49
-12.699999999999999
 74
0
  0
LTYPE
  5
44
100
AcDbSymbolTableRecord
100
AcDbLinetypeTableRecord
  2
DOT
 70
0
  3
Dot . . . . . . . . . . . . . . . . . . . . . .
 72
65
 73
2
 40
6.3499999999999996
 49
0.0
 74
0
 49
-6.3499999999999996
 74
0
  0
LTYPE
  5
45
100
AcDbSymbolTableRecord
100
AcDbLinetypeTableRecord
  2
DOT2
 70
0
  3
Dot (.5x) .....................................
 72
65
 73
2
 40
3.1749999999999998
 49
0.0
 74
0
 49
-3.1749999999999998
 74
0
  0
LTYPE
  5
46
100
AcDbSymbolTableRecord
100
AcDbLinetypeTableRecord
  2
DOTX2
 70
0
  3
Dot (2x) .  .  .  .  .  .  .  .  .  .  .  .  .
 72
65
 73
2
 40
12.699999999999999
 49
0.0
 74
0
 49
-12.699999999999999
 74
0
  0
ENDTAB
  0
TABLE
  2
LAYER
  5
2
100
AcDbSymbolTable
 70
3
  0
LAYER
  5
10
100
AcDbSymbolTableRecord
100
AcDbLayerTableRecord
  2
0
 70
0
 62
250
  6
CONTINUOUS
370
100
390
F
  0
LAYER
  5
47
100
AcDbSymbolTableRecord
100
AcDbLayerTableRecord
  2
color#ffffffff
 70
0
 62
7
  6
CONTINUOUS
370
100
390
F
  0
LAYER
  5
48
100
AcDbSymbolTableRecord
100
AcDbLayerTableRecord
  2
color#00000000
 70
0
 62
7
  6
CONTINUOUS
370
100
390
F
  0
ENDTAB
  0
TABLE
  2
STYLE
  5
3
100
AcDbSymbolTable
 70
1
  0
STYLE
  5
11
100
AcDbSymbolTableRecord
100
AcDbTextStyleTableRecord
  2
Standard
 70
0
 40
0.0
 41
0.75
 50
0.0
 71
0
 42
2.5
  3
txt
  4

  0
ENDTAB
  0
TABLE
  2
VIEW
  5
6
100
AcDbSymbolTable
 70
0
  0
ENDTAB
  0
TABLE
  2
UCS
  5
7
100
AcDbSymbolTable
 70
0
  0
ENDTAB
  0
TABLE
  2
APPID
  5
9
100
AcDbSymbolTable
 70
1
  0
APPID
  5
12
100
AcDbSymbolTableRecord
100
AcDbRegAppTableRecord
  2
ACAD
 70
0
  0
ENDTAB
  0
TABLE
  2
DIMSTYLE
  5
A
100
AcDbSymbolTable
 70
1
100
AcDbDimStyleTable
 71
0
  0
DIMSTYLE
105
27
100
AcDbSymbolTableRecord
100
AcDbDimStyleTableRecord
  2
Standard
 41
1.0
 42
1.0
 43
3.75
 44
1.0
 70
0
 73
0
 74
0
 77
1
 78
8
140
1.0
141
2.5
143
0.03937007874016
147
1.0
171
3
172
1
271
2
272
2
274
3
278
44
283
0
284
8
340
11
  0
ENDTAB
  0
TABLE
  2
BLOCK_RECORD
  5
1
100
AcDbSymbolTable
 70
1
  0
BLOCK_RECORD
  5
1F
100
AcDbSymbolTableRecord
100
AcDbBlockTableRecord
  2
*Model_Space
340
22
  0
BLOCK_RECORD
  5
1B
100
AcDbSymbolTableRecord
100
AcDbBlockTableRecord
  2
*Paper_Space
340
1E
  0
BLOCK_RECORD
  5
23
100
AcDbSymbolTableRecord
100
AcDbBlockTableRecord
  2
*Paper_Space0
340
26
  0
ENDTAB
  0
ENDSEC
  0
SECTION
  2
BLOCKS
  0
BLOCK
  5
20
100
AcDbEntity
  8
0
100
AcDbBlockBegin
  2
*Model_Space
 70
0
 10
0.0
 20
0.0
 30
0.0
  3
*Model_Space
  1

  0
ENDBLK
  5
21
100
AcDbEntity
  8
0
100
AcDbBlockEnd
  0
BLOCK
  5
1C
100
AcDbEntity
 67
1
  8
0
100
AcDbBlockBegin
  2
*Paper_Space
 70
0
 10
0.0
 20
0.0
 30
0.0
  3
*Paper_Space
  1

  0
ENDBLK
  5
1D
100
AcDbEntity
 67
1
  8
0
100
AcDbBlockEnd
  0
BLOCK
  5
24
100
AcDbEntity
  8
0
100
AcDbBlockBegin
  2
*Paper_Space0
 70
0
 10
0.0
 20
0.0
 30
0.0
  3
*Paper_Space0
  1

  0
ENDBLK
  5
25
100
AcDbEntity
  8
0
100
AcDbBlockEnd
  0
ENDSEC
  0
SECTION
  2
ENTITIES
  0
LINE
  5
49
100
AcDbEntity
100
AcDbLine
  8
color#ffffffff
 62
256
370
-1
  6
BYLAYER
 10
0.8197132079585232
 20
3.464073306152252
 30
0.0
 11
0.8400750721027145
 21
3.4656045590655244
 31
0.0
  0
LINE
  5
4A
100
AcDbEntity
100
AcDbLine
  8
color#ffffffff
 62
256
370
-1
  6
BYLAYER
 10
0.8400750721027145
 20
3.4656045590655244
 30
0.0
 11
0.9633500189954243
 21
3.4696815698223844
 31
0.0
  0
LINE
  5
4B
100
AcDbEntity
100
AcDbLine
  8
color#ffffffff
 62
256
370
-1
  6
BYLAYER
 10
0.9633500189954243
 20
3.4696815698223844
 30
0.0
 11
1.0458152403578009
 21
3.4665721966046452
 31
0.0
  0
LINE
  5
4C
100
AcDbEntity
100
AcDbLine
  8
color#ffffffff
 62
256
370
-1
  6
BYLAYER
 10
1.0458152403578009
 20
3.4665721966046452
 30
0.0
 11
1.1073348638421308
 21
3.460585012218333
 31
0.0
  0
LINE
  5
4D
100
AcDbEntity
100
AcDbLine
  8
color#ffffffff
 62
256
370
-1
  6
BYLAYER
 10
1.1073348638421308
 20
3.460585012218333
 30
0.0
 11
1.1682575317403459
 21
3.4510720164581503
 31
0.0
  0
LINE
  5
4E
100
AcDbEntity
100
AcDbLine
  8
color#ffffffff
 62
256
370
-1
  6
BYLAYER
 10
1.1682575317403459
 20
3.4510720164581503
 30
0.0
 11
1.208401132862547
 21
3.4425966477100647
 31
0.0
  0
LINE
  5
4F
100
AcDbEntity
100
AcDbLine
  8
color#ffffffff
 62
256
370
-1
  6
BYLAYER
 10
1.208401132862547
 20
3.4425966477100647
 30
0.0
 11
1.2480696171644352
 21
3.4322923704676516
 31
0.0
  0
LINE
  5
50
100
AcDbEntity
100
AcDbLine
  8
color#ffffffff
 62
256
370
-1
  6
BYLAYER
 10
1.2480696171644352
 20
3.4322923704676516
 30
0.0
 11
1.2871790633554165
 21
3.4200544322440889
 31
0.0
  0
LINE
  5
51
100
AcDbEntity
100
AcDbLine
  8
color#ffffffff
 62
256
370
-1
  6
BYLAYER
 10
1.2871790633554165
 20
3.4200544322440889
 30
0.0
 11
1.3256455501448967
 21
3.4057780805525564
 31
0.0
  0
LINE
  5
52
100
AcDbEntity
100
AcDbLine
  8
color#ffffffff
 62
256
370
-1
  6
BYLAYER
 10
1.3256455501448967
 20
3.4057780805525564
 30
0.0
 11
1.363385156242283
 21
3.3893585629062333
 31
0.0
  0
LINE
  5
53
100
AcDbEntity
100
AcDbLine
  8
color#ffffffff
 62
256
370
-1
  6
BYLAYER
 10
1.363385156242283
 20
3.3893585629062333
 30
0.0
 11
1.4003139603569812
 21
3.370691126818298
 31
0.0
  0
LINE
  5
54
100
AcDbEntity
100
AcDbLine
  8
color#ffffffff
 62
256
370
-1
  6
BYLAYER
 10
1.4003139603569812
 20
3.370691126818298
 30
0.0
 11
1.4159157967838889
 21
3.3622911693238109
 31
0.0
  0
LINE
  5
55
100
AcDbEntity
100
AcDbLine
  8
color#ffffffff
 62
256
370
-1
  6
BYLAYER
 10
1.4159157967838889
 20
3.3622911693238109
 30
0.0
 11
1.4612688668297169
 21
3.3350657958265786
 31
0.0
  0
LINE
  5
56
100
AcDbEntity
100
AcDbLine
  8
color#ffffffff
 62
256
370
-1
  6
BYLAYER
 10
1.4612688668297169
 20
3.3350657958265786
 30
0.0
 11
1.5186175222742291
 21
3.2945108348805996
 31
0.0
  0
LINE
  5
57
100
AcDbEntity
100
AcDbLine
  8
color#ffffffff
 62
256
370
-1
  6
BYLAYER
 10
1.5186175222742291
 20
3.2945108348805996
 30
0.0
 11
1.5859291419416324
 21
3.2381167525492445
 31
0.0
  0
LINE
  5
58
100
AcDbEntity
100
AcDbLine
  8
color#ffffffff
 62
256
370
-1
  6
BYLAYER
 10
1.5859291419416324
 20
3.2381167525492445
 30
0.0
 11
1.7786751441762572
 21
3.0327818212697171
 31
0.0
  0
LINE
  5
59
100
AcDbEntity
100
AcDbLine
  8
color#ffffffff
 62
256
370
-1
  6
BYLAYER
 10
1.7786751441762572
 20
3.0327818212697171
 30
0.0
 11
1.9917090699255471
 21
3.2561186780659344
 31
0.0
  0
LINE
  5
5A
100
AcDbEntity
100
AcDbLine
  8
color#ffffffff
 62
256
370
-1
  6
BYLAYER
 10
1.9917090699255471
 20
3.2561186780659344
 30
0.0
 11
2.0682225974683828
 21
3.3163182143394594
 31
0.0
  0
LINE
  5
5B
100
AcDbEntity
100
AcDbLine
  8
color#ffffffff
 62
256
370
-1
  6
BYLAYER
 10
2.0682225974683828
 20
3.3163182143394594
 30
0.0
 11
2.1228338057601017
 21
3.3519009996879756
 31
0.0
  0
LINE
  5
5C
100
AcDbEntity
100
AcDbLine
  8
color#ffffffff
 62
256
370
-1
  6
BYLAYER
 10
2.1228338057601017
 20
3.3519009996879756
 30
0.0
 11
2.1419020939524853
 21
3.3630704168307823
 31
0.0
  0
LINE
  5
5D
100
AcDbEntity
100
AcDbLine
  8
color#ffffffff
 62
256
370
-1
  6
BYLAYER
 10
2.1419020939524853
 20
3.3630704168307823
 30
0.0
 11
2.1612355967170309
 21
3.3735941161025691
 31
0.0
  0
LINE
  5
5E
100
AcDbEntity
100
AcDbLine
  8
color#ffffffff
 62
256
370
-1
  6
BYLAYER
 10
2.1612355967170309
 20
3.3735941161025691
 30
0.0
 11
2.1808215376814402
 21
3.3834859232722452
 31
0.0
  0
LINE
  5
5F
100
AcDbEntity
100
AcDbLine
  8
color#ffffffff
 62
256
370
-1
  6
BYLAYER
 10
2.1808215376814402
 20
3.3834859232722452
 30
0.0
 11
2.2006471404734125
 21
3.3927596641087203
 31
0.0
  0
LINE
  5
60
100
AcDbEntity
100
AcDbLine
  8
color#ffffffff
 62
256
370
-1
  6
BYLAYER
 10
2.2006471404734125
 20
3.3927596641087203
 30
0.0
 11
2.2206996287206495
 21
3.4014291643809043
 31
0.0
  0
LINE
  5
61
100
AcDbEntity
100
AcDbLine
  8
color#ffffffff
 62
256
370
-1
  6
BYLAYER
 10
2.2206996287206495
 20
3.4014291643809043
 30
0.0
 11
2.2614341560917177
 21
3.4170107463080357
 31
0.0
  0
LINE
  5
62
100
AcDbEntity
100
AcDbLine
  8
color#ffffffff
 62
256
370
-1
  6
BYLAYER
 10
2.2614341560917177
 20
3.4170107463080357
 30
0.0
 11
2.3029229088162477
 21
3.4303412752049178
 31
0.0
  0
LINE
  5
63
100
AcDbEntity
100
AcDbLine
  8
color#ffffffff
 62
256
370
-1
  6
BYLAYER
 10
2.3029229088162477
 20
3.4303412752049178
 30
0.0
 11
2.3450636759158434
 21
3.4415313572228263
 31
0.0
  0
LINE
  5
64
100
AcDbEntity
100
AcDbLine
  8
color#ffffffff
 62
256
370
-1
  6
BYLAYER
 10
2.3450636759158434
 20
3.4415313572228263
 30
0.0
 11
2.3877542464121095
 21
3.4506915985130382
 31
0.0
  0
LINE
  5
65
100
AcDbEntity
100
AcDbLine
  8
color#ffffffff
 62
256
370
-1
  6
BYLAYER
 10
2.3877542464121095
 20
3.4506915985130382
 30
0.0
 11
2.4308924093266486
 21
3.4579326052268313
 31
0.0
  0
LINE
  5
66
100
AcDbEntity
100
AcDbLine
  8
color#ffffffff
 62
256
370
-1
  6
BYLAYER
 10
2.4308924093266486
 20
3.4579326052268313
 30
0.0
 11
2.4743759536810663
 21
3.4633649835154818
 31
0.0
  0
LINE
  5
67
100
AcDbEntity
100
AcDbLine
  8
color#ffffffff
 62
256
370
-1
  6
BYLAYER
 10
2.4743759536810663
 20
3.4633649835154818
 30
0.0
 11
2.5400252738972191
 21
3.4683643236072337
 31
0.0
  0
LINE
  5
68
100
AcDbEntity
100
AcDbLine
  8
color#ffffffff
 62
256
370
-1
  6
BYLAYER
 10
2.5400252738972191
 20
3.4683643236072337
 30
0.0
 11
2.6278125667599617
 21
3.4697322349868225
 31
0.0
  0
LINE
  5
69
100
AcDbEntity
100
AcDbLine
  8
color#ffffffff
 62
256
370
-1
  6
BYLAYER
 10
2.6278125667599617
 20
3.4697322349868225
 30
0.0
 11
2.7368064152547986
 21
3.4641720007909016
 31
0.0
  0
LINE
  5
6A
100
AcDbEntity
100
AcDbLine
  8
color#ffffffff
 62
256
370
-1
  6
BYLAYER
 10
2.7368064152547986
 20
3.4641720007909016
 30
0.0
 11
2.7580511354522494
 21
3.4621977179222347
 31
0.0
  0
LINE
  5
6B
100
AcDbEntity
100
AcDbLine
  8
color#ffffffff
 62
256
370
-1
  6
BYLAYER
 10
2.7580511354522494
 20
3.4621977179222347
 30
0.0
 11
2.7791875622182305
 21
3.45959044973812
 31
0.0
  0
LINE
  5
6C
100
AcDbEntity
100
AcDbLine
  8
color#ffffffff
 62
256
370
-1
  6
BYLAYER
 10
2.7791875622182305
 20
3.45959044973812
 30
0.0
 11
2.8002058347087089
 21
3.4563614053519913
 31
0.0
  0
LINE
  5
6D
100
AcDbEntity
100
AcDbLine
  8
color#ffffffff
 62
256
370
-1
  6
BYLAYER
 10
2.8002058347087089
 20
3.4563614053519913
 30
0.0
 11
2.8418484734870262
 21
3.4480828244274271
 31
0.0
  0
LINE
  5
6E
100
AcDbEntity
100
AcDbLine
  8
color#ffffffff
 62
256
370
-1
  6
BYLAYER
 10
2.8418484734870262
 20
3.4480828244274271
 30
0.0
 11
2.8829001650349388
 21
3.4374516480560113
 31
0.0
  0
LINE
  5
6F
100
AcDbEntity
100
AcDbLine
  8
color#ffffffff
 62
256
370
-1
  6
BYLAYER
 10
2.8829001650349388
 20
3.4374516480560113
 30
0.0
 11
2.9232820226001834
 21
3.4245575491452143
 31
0.0
  0
LINE
  5
70
100
AcDbEntity
100
AcDbLine
  8
color#ffffffff
 62
256
370
-1
  6
BYLAYER
 10
2.9232820226001834
 20
3.4245575491452143
 30
0.0
 11
2.9629151594304974
 21
3.4094902006025043
 31
0.0
  0
LINE
  5
71
100
AcDbEntity
100
AcDbLine
  8
color#ffffffff
 62
256
370
-1
  6
BYLAYER
 10
2.9629151594304974
 20
3.4094902006025043
 30
0.0
 11
3.0017206887736179
 21
3.3923392753353516
 31
0.0
  0
LINE
  5
72
100
AcDbEntity
100
AcDbLine
  8
color#ffffffff
 62
256
370
-1
  6
BYLAYER
 10
3.0017206887736179
 20
3.3923392753353516
 30
0.0
 11
3.0396197238772809
 21
3.3731944462512251
 31
0.0
  0
LINE
  5
73
100
AcDbEntity
100
AcDbLine
  8
color#ffffffff
 62
256
370
-1
  6
BYLAYER
 10
3.0396197238772809
 20
3.3731944462512251
 30
0.0
 11
3.0765333779892248
 21
3.352145386257595
 31
0.0
  0
LINE
  5
74
100
AcDbEntity
100
AcDbLine
  8
color#ffffffff
 62
256
370
-1
  6
BYLAYER
 10
3.0765333779892248
 20
3.352145386257595
 30
0.0
 11
3.1123827643571844
 21
3.3292817682619305
 31
0.0
  0
LINE
  5
75
100
AcDbEntity
100
AcDbLine
  8
color#ffffffff
 62
256
370
-1
  6
BYLAYER
 10
3.1123827643571844
 20
3.3292817682619305
 30
0.0
 11
3.1470889962288999
 21
3.3046932651717
 31
0.0
  0
LINE
  5
76
100
AcDbEntity
100
AcDbLine
  8
color#ffffffff
 62
256
370
-1
  6
BYLAYER
 10
3.1470889962288999
 20
3.3046932651717
 30
0.0
 11
3.1805731868521061
 21
3.2784695498943743
 31
0.0
  0
LINE
  5
77
100
AcDbEntity
100
AcDbLine
  8
color#ffffffff
 62
256
370
-1
  6
BYLAYER
 10
3.1805731868521061
 20
3.2784695498943743
 30
0.0
 11
3.21275644947454
 21
3.2507002953374222
 31
0.0
  0
LINE
  5
78
100
AcDbEntity
100
AcDbLine
  8
color#ffffffff
 62
256
370
-1
  6
BYLAYER
 10
3.21275644947454
 20
3.2507002953374222
 30
0.0
 11
3.2435598973439395
 21
3.2214751744083139
 31
0.0
  0
LINE
  5
79
100
AcDbEntity
100
AcDbLine
  8
color#ffffffff
 62
256
370
-1
  6
BYLAYER
 10
3.2435598973439395
 20
3.2214751744083139
 30
0.0
 11
3.2729046437080411
 21
3.1908838600145177
 31
0.0
  0
LINE
  5
7A
100
AcDbEntity
100
AcDbLine
  8
color#ffffffff
 62
256
370
-1
  6
BYLAYER
 10
3.2729046437080411
 20
3.1908838600145177
 30
0.0
 11
3.2904401649685306
 21
3.171588592577478
 31
0.0
  0
LINE
  5
7B
100
AcDbEntity
100
AcDbLine
  8
color#ffffffff
 62
256
370
-1
  6
BYLAYER
 10
3.2904401649685306
 20
3.171588592577478
 30
0.0
 11
3.3073773488828939
 21
3.1518448096725313
 31
0.0
  0
LINE
  5
7C
100
AcDbEntity
100
AcDbLine
  8
color#ffffffff
 62
256
370
-1
  6
BYLAYER
 10
3.3073773488828939
 20
3.1518448096725313
 30
0.0
 11
3.323720860409487
 21
3.1316688040193648
 31
0.0
  0
LINE
  5
7D
100
AcDbEntity
100
AcDbLine
  8
color#ffffffff
 62
256
370
-1
  6
BYLAYER
 10
3.323720860409487
 20
3.1316688040193648
 30
0.0
 11
3.3394753645066597
 21
3.1110768683376673
 31
0.0
  0
LINE
  5
7E
100
AcDbEntity
100
AcDbLine
  8
color#ffffffff
 62
256
370
-1
  6
BYLAYER
 10
3.3394753645066597
 20
3.1110768683376673
 30
0.0
 11
3.3546455261327655
 21
3.0900852953471269
 31
0.0
  0
LINE
  5
7F
100
AcDbEntity
100
AcDbLine
  8
color#ffffffff
 62
256
370
-1
  6
BYLAYER
 10
3.3546455261327655
 20
3.0900852953471269
 30
0.0
 11
3.3692360102461567
 21
3.0687103777674309
 31
0.0
  0
LINE
  5
80
100
AcDbEntity
100
AcDbLine
  8
color#ffffffff
 62
256
370
-1
  6
BYLAYER
 10
3.3692360102461567
 20
3.0687103777674309
 30
0.0
 11
3.3832514818051851
 21
3.0469684083182682
 31
0.0
  0
LINE
  5
81
100
AcDbEntity
100
AcDbLine
  8
color#ffffffff
 62
256
370
-1
  6
BYLAYER
 10
3.3832514818051851
 20
3.0469684083182682
 30
0.0
 11
3.3966966057682044
 21
3.0248756797193264
 31
0.0
  0
LINE
  5
82
100
AcDbEntity
100
AcDbLine
  8
color#ffffffff
 62
256
370
-1
  6
BYLAYER
 10
3.3966966057682044
 20
3.0248756797193264
 30
0.0
 11
3.4095760470935663
 21
3.0024484846902939
 31
0.0
  0
LINE
  5
83
100
AcDbEntity
100
AcDbLine
  8
color#ffffffff
 62
256
370
-1
  6
BYLAYER
 10
3.4095760470935663
 20
3.0024484846902939
 30
0.0
 11
3.4218944707396233
 21
2.979703115950858
 31
0.0
  0
LINE
  5
84
100
AcDbEntity
100
AcDbLine
  8
color#ffffffff
 62
256
370
-1
  6
BYLAYER
 10
3.4218944707396233
 20
2.979703115950858
 30
0.0
 11
3.4336565416647287
 21
2.9566558662207076
 31
0.0
  0
LINE
  5
85
100
AcDbEntity
100
AcDbLine
  8
color#ffffffff
 62
256
370
-1
  6
BYLAYER
 10
3.4336565416647287
 20
2.9566558662207076
 30
0.0
 11
3.4555302851854903
 21
2.9097208946670148
 31
0.0
  0
LINE
  5
86
100
AcDbEntity
100
AcDbLine
  8
color#ffffffff
 62
256
370
-1
  6
BYLAYER
 10
3.4555302851854903
 20
2.9097208946670148
 30
0.0
 11
3.475234597322673
 21
2.8617739117867198
 31
0.0
  0
LINE
  5
87
100
AcDbEntity
100
AcDbLine
  8
color#ffffffff
 62
256
370
-1
  6
BYLAYER
 10
3.475234597322673
 20
2.8617739117867198
 30
0.0
 11
3.4928067977430945
 21
2.8129452593373268
 31
0.0
  0
LINE
  5
88
100
AcDbEntity
100
AcDbLine
  8
color#ffffffff
 62
256
370
-1
  6
BYLAYER
 10
3.4928067977430945
 20
2.8129452593373268
 30
0.0
 11
3.5082842061135748
 21
2.763365279076341
 31
0.0
  0
LINE
  5
89
100
AcDbEntity
100
AcDbLine
  8
color#ffffffff
 62
256
370
-1
  6
BYLAYER
 10
3.5082842061135748
 20
2.763365279076341
 30
0.0
 11
3.5217041421009352
 21
2.7131643127612661
 31
0.0
  0
LINE
  5
8A
100
AcDbEntity
100
AcDbLine
  8
color#ffffffff
 62
256
370
-1
  6
BYLAYER
 10
3.5217041421009352
 20
2.7131643127612661
 30
0.0
 11
3.5331039253719938
 21
2.6624727021496071
 31
0.0
  0
LINE
  5
8B
100
AcDbEntity
100
AcDbLine
  8
color#ffffffff
 62
256
370
-1
  6
BYLAYER
 10
3.5331039253719938
 20
2.6624727021496071
 30
0.0
 11
3.5425208755935689
 21
2.6114207889988688
 31
0.0
  0
LINE
  5
8C
100
AcDbEntity
100
AcDbLine
  8
color#ffffffff
 62
256
370
-1
  6
BYLAYER
 10
3.5425208755935689
 20
2.6114207889988688
 30
0.0
 11
3.5499923124324844
 21
2.5601389150665548
 31
0.0
  0
LINE
  5
8D
100
AcDbEntity
100
AcDbLine
  8
color#ffffffff
 62
256
370
-1
  6
BYLAYER
 10
3.5499923124324844
 20
2.5601389150665548
 30
0.0
 11
3.5555555555555554
 21
2.5087574221101705
 31
0.0
  0
LINE
  5
8E
100
AcDbEntity
100
AcDbLine
  8
color#ffffffff
 62
256
370
-1
  6
BYLAYER
 10
3.5555555555555554
 20
2.5087574221101705
 30
0.0
 11
3.5555555555555554
 21
2.2836449210769407
 31
0.0
  0
LINE
  5
8F
100
AcDbEntity
100
AcDbLine
  8
color#ffffffff
 62
256
370
-1
  6
BYLAYER
 10
3.5555555555555554
 20
2.2836449210769407
 30
0.0
 11
3.5521900560934507
 21
2.2509846959517827
 31
0.0
  0
LINE
  5
90
100
AcDbEntity
100
AcDbLine
  8
color#ffffffff
 62
256
370
-1
  6
BYLAYER
 10
3.5521900560934507
 20
2.2509846959517827
 30
0.0
 11
3.5480550375787048
 21
2.2184799240198134
 31
0.0
  0
LINE
  5
91
100
AcDbEntity
100
AcDbLine
  8
color#ffffffff
 62
256
370
-1
  6
BYLAYER
 10
3.5480550375787048
 20
2.2184799240198134
 30
0.0
 11
3.5431678915988321
 21
2.186134350760502
 31
0.0
  0
LINE
  5
92
100
AcDbEntity
100
AcDbLine
  8
color#ffffffff
 62
256
370
-1
  6
BYLAYER
 10
3.5431678915988321
 20
2.186134350760502
 30
0.0
 11
3.5375460097413391
 21
2.1539517216533177
 31
0.0
  0
LINE
  5
93
100
AcDbEntity
100
AcDbLine
  8
color#ffffffff
 62
256
370
-1
  6
BYLAYER
 10
3.5375460097413391
 20
2.1539517216533177
 30
0.0
 11
3.5312067835937415
 21
2.1219357821777303
 31
0.0
  0
LINE
  5
94
100
AcDbEntity
100
AcDbLine
  8
color#ffffffff
 62
256
370
-1
  6
BYLAYER
 10
3.5312067835937415
 20
2.1219357821777303
 30
0.0
 11
3.5241676047435475
 21
2.0900902778132093
 31
0.0
  0
LINE
  5
95
100
AcDbEntity
100
AcDbLine
  8
color#ffffffff
 62
256
370
-1
  6
BYLAYER
 10
3.5241676047435475
 20
2.0900902778132093
 30
0.0
 11
3.5164458647782659
 21
2.0584189540392259
 31
0.0
  0
LINE
  5
96
100
AcDbEntity
100
AcDbLine
  8
color#ffffffff
 62
256
370
-1
  6
BYLAYER
 10
3.5164458647782659
 20
2.0584189540392259
 30
0.0
 11
3.5080589552854122
 21
2.0269255563352466
 31
0.0
  0
LINE
  5
97
100
AcDbEntity
100
AcDbLine
  8
color#ffffffff
 62
256
370
-1
  6
BYLAYER
 10
3.5080589552854122
 20
2.0269255563352466
 30
0.0
 11
3.4990242678524961
 21
1.9956138301807431
 31
0.0
  0
LINE
  5
98
100
AcDbEntity
100
AcDbLine
  8
color#ffffffff
 62
256
370
-1
  6
BYLAYER
 10
3.4990242678524961
 20
1.9956138301807431
 30
0.0
 11
3.489359194067025
 21
1.9644875210551855
 31
0.0
  0
LINE
  5
99
100
AcDbEntity
100
AcDbLine
  8
color#ffffffff
 62
256
370
-1
  6
BYLAYER
 10
3.489359194067025
 20
1.9644875210551855
 30
0.0
 11
3.4790811255165135
 21
1.9335503744380418
 31
0.0
  0
LINE
  5
9A
100
AcDbEntity
100
AcDbLine
  8
color#ffffffff
 62
256
370
-1
  6
BYLAYER
 10
3.4790811255165135
 20
1.9335503744380418
 30
0.0
 11
3.4567555704704085
 21
1.8722585506468761
 31
0.0
  0
LINE
  5
9B
100
AcDbEntity
100
AcDbLine
  8
color#ffffffff
 62
256
370
-1
  6
BYLAYER
 10
3.4567555704704085
 20
1.8722585506468761
 30
0.0
 11
3.4321867354142679
 21
1.8117683226430046
 31
0.0
  0
LINE
  5
9C
100
AcDbEntity
100
AcDbLine
  8
color#ffffffff
 62
256
370
-1
  6
BYLAYER
 10
3.4321867354142679
 20
1.8117683226430046
 30
0.0
 11
3.4055137530481794
 21
1.7521096542621828
 31
0.0
  0
LINE
  5
9D
100
AcDbEntity
100
AcDbLine
  8
color#ffffffff
 62
256
370
-1
  6
BYLAYER
 10
3.4055137530481794
 20
1.7521096542621828
 30
0.0
 11
3.3768757560722289
 21
1.693312509340168
 31
0.0
  0
LINE
  5
9E
100
AcDbEntity
100
AcDbLine
  8
color#ffffffff
 62
256
370
-1
  6
BYLAYER
 10
3.3768757560722289
 20
1.693312509340168
 30
0.0
 11
3.3464118771865046
 21
1.635406851712716
 31
0.0
  0
LINE
  5
9F
100
AcDbEntity
100
AcDbLine
  8
color#ffffffff
 62
256
370
-1
  6
BYLAYER
 10
3.3464118771865046
 20
1.635406851712716
 30
0.0
 11
3.3142612490910923
 21
1.5784226452155845
 31
0.0
  0
LINE
  5
A0
100
AcDbEntity
100
AcDbLine
  8
color#ffffffff
 62
256
370
-1
  6
BYLAYER
 10
3.3142612490910923
 20
1.5784226452155845
 30
0.0
 11
3.2631770049612525
 21
1.4947396022299553
 31
0.0
  0
LINE
  5
A1
100
AcDbEntity
100
AcDbLine
  8
color#ffffffff
 62
256
370
-1
  6
BYLAYER
 10
3.2631770049612525
 20
1.4947396022299553
 30
0.0
 11
3.2090801965476063
 21
1.4132983708636782
 31
0.0
  0
LINE
  5
A2
100
AcDbEntity
100
AcDbLine
  8
color#ffffffff
 62
256
370
-1
  6
BYLAYER
 10
3.2090801965476063
 20
1.4132983708636782
 30
0.0
 11
3.1815451390981266
 21
1.3744680310923922
 31
0.0
  0
LINE
  5
A3
100
AcDbEntity
100
AcDbLine
  8
color#ffffffff
 62
256
370
-1
  6
BYLAYER
 10
3.1815451390981266
 20
1.3744680310923922
 30
0.0
 11
3.153468122682122
 21
1.3360768648978396
 31
0.0
  0
LINE
  5
A4
100
AcDbEntity
100
AcDbLine
  8
color#ffffffff
 62
256
370
-1
  6
BYLAYER
 10
3.153468122682122
 20
1.3360768648978396
 30
0.0
 11
3.1248646832857734
 21
1.2981160435122492
 31
0.0
  0
LINE
  5
A5
100
AcDbEntity
100
AcDbLine
  8
color#ffffffff
 62
256
370
-1
  6
BYLAYER
 10
3.1248646832857734
 20
1.2981160435122492
 30
0.0
 11
3.095750356895258
 21
1.2605767381678541
 31
0.0
  0
LINE
  5
A6
100
AcDbEntity
100
AcDbLine
  8
color#ffffffff
 62
256
370
-1
  6
BYLAYER
 10
3.095750356895258
 20
1.2605767381678541
 30
0.0
 11
3.0661406794967601
 21
1.2234501200968835
 31
0.0
  0
LINE
  5
A7
100
AcDbEntity
100
AcDbLine
  8
color#ffffffff
 62
256
370
-1
  6
BYLAYER
 10
3.0661406794967601
 20
1.2234501200968835
 30
0.0
 11
3.0054974156205265
 21
1.1503996307041442
 31
0.0
  0
LINE
  5
A8
100
AcDbEntity
100
AcDbLine
  8
color#ffffffff
 62
256
370
-1
  6
BYLAYER
 10
3.0054974156205265
 20
1.1503996307041442
 30
0.0
 11
2.9430591795465144
 21
1.0788939451918778
 31
0.0
  0
LINE
  5
A9
100
AcDbEntity
100
AcDbLine
  8
color#ffffffff
 62
256
370
-1
  6
BYLAYER
 10
2.9430591795465144
 20
1.0788939451918778
 30
0.0
 11
2.8789502591641605
 21
1.0088624334179375
 31
0.0
  0
LINE
  5
AA
100
AcDbEntity
100
AcDbLine
  8
color#ffffffff
 62
256
370
-1
  6
BYLAYER
 10
2.8789502591641605
 20
1.0088624334179375
 30
0.0
 11
2.8132949423629046
 21
0.9402344652401679
 31
0.0
  0
LINE
  5
AB
100
AcDbEntity
100
AcDbLine
  8
color#ffffffff
 62
256
370
-1
  6
BYLAYER
 10
2.8132949423629046
 20
0.9402344652401679
 30
0.0
 11
2.7462175170321874
 21
0.8729394105164201
 31
0.0
  0
LINE
  5
AC
100
AcDbEntity
100
AcDbLine
  8
color#ffffffff
 62
256
370
-1
  6
BYLAYER
 10
2.7462175170321874
 20
0.8729394105164201
 30
0.0
 11
2.643206805301519
 21
0.7743415377211326
 31
0.0
  0
LINE
  5
AD
100
AcDbEntity
100
AcDbLine
  8
color#ffffffff
 62
256
370
-1
  6
BYLAYER
 10
2.643206805301519
 20
0.7743415377211326
 30
0.0
 11
2.5376954687576574
 21
0.6783454256477918
 31
0.0
  0
LINE
  5
AE
100
AcDbEntity
100
AcDbLine
  8
color#ffffffff
 62
256
370
-1
  6
BYLAYER
 10
2.5376954687576574
 20
0.6783454256477918
 30
0.0
 11
2.3574256028084317
 21
0.5234861530490539
 31
0.0
  0
LINE
  5
AF
100
AcDbEntity
100
AcDbLine
  8
color#ffffffff
 62
256
370
-1
  6
BYLAYER
 10
2.3574256028084317
 20
0.5234861530490539
 30
0.0
 11
2.2472966836051391
 21
0.4332626722220769
 31
0.0
  0
LINE
  5
B0
100
AcDbEntity
100
AcDbLine
  8
color#ffffffff
 62
256
370
-1
  6
BYLAYER
 10
2.2472966836051391
 20
0.4332626722220769
 30
0.0
 11
1.7787067233390406
 21
0.0833908136972729
 31
0.0
  0
LINE
  5
B1
100
AcDbEntity
100
AcDbLine
  8
color#ffffffff
 62
256
370
-1
  6
BYLAYER
 10
1.7787067233390406
 20
0.0833908136972729
 30
0.0
 11
1.5297227420249775
 21
0.2645392264731363
 31
0.0
  0
LINE
  5
B2
100
AcDbEntity
100
AcDbLine
  8
color#ffffffff
 62
256
370
-1
  6
BYLAYER
 10
1.5297227420249775
 20
0.2645392264731363
 30
0.0
 11
1.3825891673082256
 21
0.3767293437110529
 31
0.0
  0
LINE
  5
B3
100
AcDbEntity
100
AcDbLine
  8
color#ffffffff
 62
256
370
-1
  6
BYLAYER
 10
1.3825891673082256
 20
0.3767293437110529
 30
0.0
 11
1.2857987863743645
 21
0.4532313642769989
 31
0.0
  0
LINE
  5
B4
100
AcDbEntity
100
AcDbLine
  8
color#ffffffff
 62
256
370
-1
  6
BYLAYER
 10
1.2857987863743645
 20
0.4532313642769989
 30
0.0
 11
1.1902480051635822
 21
0.5312401769500283
 31
0.0
  0
LINE
  5
B5
100
AcDbEntity
100
AcDbLine
  8
color#ffffffff
 62
256
370
-1
  6
BYLAYER
 10
1.1902480051635822
 20
0.5312401769500283
 30
0.0
 11
1.0961088219226482
 21
0.6108757001711835
 31
0.0
  0
LINE
  5
B6
100
AcDbEntity
100
AcDbLine
  8
color#ffffffff
 62
256
370
-1
  6
BYLAYER
 10
1.0961088219226482
 20
0.6108757001711835
 30
0.0
 11
1.0035532348983334
 21
0.6922578523815047
 31
0.0
  0
LINE
  5
B7
100
AcDbEntity
100
AcDbLine
  8
color#ffffffff
 62
256
370
-1
  6
BYLAYER
 10
1.0035532348983334
 20
0.6922578523815047
 30
0.0
 11
0.9579230394195238
 21
0.7336413888704291
 31
0.0
  0
LINE
  5
B8
100
AcDbEntity
100
AcDbLine
  8
color#ffffffff
 62
256
370
-1
  6
BYLAYER
 10
0.9579230394195238
 20
0.7336413888704291
 30
0.0
 11
0.9127532423374082
 21
0.7755065520220347
 31
0.0
  0
LINE
  5
B9
100
AcDbEntity
100
AcDbLine
  8
color#ffffffff
 62
256
370
-1
  6
BYLAYER
 10
0.9127532423374082
 20
0.7755065520220347
 30
0.0
 11
0.8680653434328325
 21
0.8178683316414532
 31
0.0
  0
LINE
  5
BA
100
AcDbEntity
100
AcDbLine
  8
color#ffffffff
 62
256
370
-1
  6
BYLAYER
 10
0.8680653434328325
 20
0.8178683316414532
 30
0.0
 11
0.8238808424866432
 21
0.8607417175338136
 31
0.0
  0
LINE
  5
BB
100
AcDbEntity
100
AcDbLine
  8
color#ffffffff
 62
256
370
-1
  6
BYLAYER
 10
0.8238808424866432
 20
0.8607417175338136
 30
0.0
 11
0.7802212392796865
 21
0.9041416995042479
 31
0.0
  0
LINE
  5
BC
100
AcDbEntity
100
AcDbLine
  8
color#ffffffff
 62
256
370
-1
  6
BYLAYER
 10
0.7802212392796865
 20
0.9041416995042479
 30
0.0
 11
0.737108033592809
 21
0.9480832673578843
 31
0.0
  0
LINE
  5
BD
100
AcDbEntity
100
AcDbLine
  8
color#ffffffff
 62
256
370
-1
  6
BYLAYER
 10
0.737108033592809
 20
0.9480832673578843
 30
0.0
 11
0.6945627252068564
 21
0.9925814108998543
 31
0.0
  0
LINE
  5
BE
100
AcDbEntity
100
AcDbLine
  8
color#ffffffff
 62
256
370
-1
  6
BYLAYER
 10
0.6945627252068564
 20
0.9925814108998543
 30
0.0
 11
0.6526068139026757
 21
1.0376511199352874
 31
0.0
  0
LINE
  5
BF
100
AcDbEntity
100
AcDbLine
  8
color#ffffffff
 62
256
370
-1
  6
BYLAYER
 10
0.6526068139026757
 20
1.0376511199352874
 30
0.0
 11
0.6112617994611127
 21
1.0833073842693142
 31
0.0
  0
LINE
  5
C0
100
AcDbEntity
100
AcDbLine
  8
color#ffffffff
 62
256
370
-1
  6
BYLAYER
 10
0.6112617994611127
 20
1.0833073842693142
 30
0.0
 11
0.5705491816630141
 21
1.129565193707065
 31
0.0
  0
LINE
  5
C1
100
AcDbEntity
100
AcDbLine
  8
color#ffffffff
 62
256
370
-1
  6
BYLAYER
 10
0.5705491816630141
 20
1.129565193707065
 30
0.0
 11
0.530490460289226
 21
1.1764395380536696
 31
0.0
  0
LINE
  5
C2
100
AcDbEntity
100
AcDbLine
  8
color#ffffffff
 62
256
370
-1
  6
BYLAYER
 10
0.530490460289226
 20
1.1764395380536696
 30
0.0
 11
0.4911071351205947
 21
1.2239454071142584
 31
0.0
  0
LINE
  5
C3
100
AcDbEntity
100
AcDbLine
  8
color#ffffffff
 62
256
370
-1
  6
BYLAYER
 10
0.4911071351205947
 20
1.2239454071142584
 30
0.0
 11
0.4524207059379665
 21
1.2720977906939614
 31
0.0
  0
LINE
  5
C4
100
AcDbEntity
100
AcDbLine
  8
color#ffffffff
 62
256
370
-1
  6
BYLAYER
 10
0.4524207059379665
 20
1.2720977906939614
 30
0.0
 11
0.4054133857469618
 21
1.3338085298143936
 31
0.0
  0
LINE
  5
C5
100
AcDbEntity
100
AcDbLine
  8
color#ffffffff
 62
256
370
-1
  6
BYLAYER
 10
0.4054133857469618
 20
1.3338085298143936
 30
0.0
 11
0.3598660766823923
 21
1.3969100040015734
 31
0.0
  0
LINE
  5
C6
100
AcDbEntity
100
AcDbLine
  8
color#ffffffff
 62
256
370
-1
  6
BYLAYER
 10
0.3598660766823923
 20
1.3969100040015734
 30
0.0
 11
0.3159903633519682
 21
1.4613701118810591
 31
0.0
  0
LINE
  5
C7
100
AcDbEntity
100
AcDbLine
  8
color#ffffffff
 62
256
370
-1
  6
BYLAYER
 10
0.3159903633519682
 20
1.4613701118810591
 30
0.0
 11
0.2739978303633994
 21
1.5271567520784153
 31
0.0
  0
LINE
  5
C8
100
AcDbEntity
100
AcDbLine
  8
color#ffffffff
 62
256
370
-1
  6
BYLAYER
 10
0.2739978303633994
 20
1.5271567520784153
 30
0.0
 11
0.2537738766872201
 21
1.5605374901167819
 31
0.0
  0
LINE
  5
C9
100
AcDbEntity
100
AcDbLine
  8
color#ffffffff
 62
256
370
-1
  6
BYLAYER
 10
0.2537738766872201
 20
1.5605374901167819
 30
0.0
 11
0.2341000623243958
 21
1.5942378232192027
 31
0.0
  0
LINE
  5
CA
100
AcDbEntity
100
AcDbLine
  8
color#ffffffff
 62
256
370
-1
  6
BYLAYER
 10
0.2341000623243958
 20
1.5942378232192027
 30
0.0
 11
0.2150028353508905
 21
1.6282537387138705
 31
0.0
  0
LINE
  5
CB
100
AcDbEntity
100
AcDbLine
  8
color#ffffffff
 62
256
370
-1
  6
BYLAYER
 10
0.2150028353508905
 20
1.6282537387138705
 30
0.0
 11
0.1965086438426678
 21
1.6625812239289814
 31
0.0
  0
LINE
  5
CC
100
AcDbEntity
100
AcDbLine
  8
color#ffffffff
 62
256
370
-1
  6
BYLAYER
 10
0.1965086438426678
 20
1.6625812239289814
 30
0.0
 11
0.1786439358756914
 21
1.6972162661927319
 31
0.0
  0
LINE
  5
CD
100
AcDbEntity
100
AcDbLine
  8
color#ffffffff
 62
256
370
-1
  6
BYLAYER
 10
0.1786439358756914
 20
1.6972162661927319
 30
0.0
 11
0.1614351595259252
 21
1.7321548528333155
 31
0.0
  0
LINE
  5
CE
100
AcDbEntity
100
AcDbLine
  8
color#ffffffff
 62
256
370
-1
  6
BYLAYER
 10
0.1614351595259252
 20
1.7321548528333155
 30
0.0
 11
0.1449087628693328
 21
1.767392971178928
 31
0.0
  0
LINE
  5
CF
100
AcDbEntity
100
AcDbLine
  8
color#ffffffff
 62
256
370
-1
  6
BYLAYER
 10
0.1449087628693328
 20
1.767392971178928
 30
0.0
 11
0.1290911939818781
 21
1.8029266085577644
 31
0.0
  0
LINE
  5
D0
100
AcDbEntity
100
AcDbLine
  8
color#ffffffff
 62
256
370
-1
  6
BYLAYER
 10
0.1290911939818781
 20
1.8029266085577644
 30
0.0
 11
0.1140089009395248
 21
1.8387517522980206
 31
0.0
  0
LINE
  5
D1
100
AcDbEntity
100
AcDbLine
  8
color#ffffffff
 62
256
370
-1
  6
BYLAYER
 10
0.1140089009395248
 20
1.8387517522980206
 30
0.0
 11
0.0996883318182366
 21
1.8748643897278905
 31
0.0
  0
LINE
  5
D2
100
AcDbEntity
100
AcDbLine
  8
color#ffffffff
 62
256
370
-1
  6
BYLAYER
 10
0.0996883318182366
 20
1.8748643897278905
 30
0.0
 11
0.0861559346939773
 21
1.9112605081755707
 31
0.0
  0
LINE
  5
D3
100
AcDbEntity
100
AcDbLine
  8
color#ffffffff
 62
256
370
-1
  6
BYLAYER
 10
0.0861559346939773
 20
1.9112605081755707
 30
0.0
 11
0.0734381576427106
 21
1.9479360949692552
 31
0.0
  0
LINE
  5
D4
100
AcDbEntity
100
AcDbLine
  8
color#ffffffff
 62
256
370
-1
  6
BYLAYER
 10
0.0734381576427106
 20
1.9479360949692552
 30
0.0
 11
0.0615614487404004
 21
1.9848871374371402
 31
0.0
  0
LINE
  5
D5
100
AcDbEntity
100
AcDbLine
  8
color#ffffffff
 62
256
370
-1
  6
BYLAYER
 10
0.0615614487404004
 20
1.9848871374371402
 30
0.0
 11
0.0505522560630104
 21
2.0221096229074202
 31
0.0
  0
LINE
  5
D6
100
AcDbEntity
100
AcDbLine
  8
color#ffffffff
 62
256
370
-1
  6
BYLAYER
 10
0.0505522560630104
 20
2.0221096229074202
 30
0.0
 11
0.0404370276865042
 21
2.0595995387082904
 31
0.0
  0
LINE
  5
D7
100
AcDbEntity
100
AcDbLine
  8
color#ffffffff
 62
256
370
-1
  6
BYLAYER
 10
0.0404370276865042
 20
2.0595995387082904
 30
0.0
 11
0.0312422116868457
 21
2.0973528721679466
 31
0.0
  0
LINE
  5
D8
100
AcDbEntity
100
AcDbLine
  8
color#ffffffff
 62
256
370
-1
  6
BYLAYER
 10
0.0312422116868457
 20
2.0973528721679466
 30
0.0
 11
0.0229942561399987
 21
2.1353656106145831
 31
0.0
  0
LINE
  5
D9
100
AcDbEntity
100
AcDbLine
  8
color#ffffffff
 62
256
370
-1
  6
BYLAYER
 10
0.0229942561399987
 20
2.1353656106145831
 30
0.0
 11
0.0157196091219268
 21
2.173633741376396
 31
0.0
  0
LINE
  5
DA
100
AcDbEntity
100
AcDbLine
  8
color#ffffffff
 62
256
370
-1
  6
BYLAYER
 10
0.0157196091219268
 20
2.173633741376396
 30
0.0
 11
0.0094447187085939
 21
2.2121532517815803
 31
0.0
  0
LINE
  5
DB
100
AcDbEntity
100
AcDbLine
  8
color#ffffffff
 62
256
370
-1
  6
BYLAYER
 10
0.0094447187085939
 20
2.2121532517815803
 30
0.0
 11
0.0041960329759638
 21
2.2509201291583301
 31
0.0
  0
LINE
  5
DC
100
AcDbEntity
100
AcDbLine
  8
color#ffffffff
 62
256
370
-1
  6
BYLAYER
 10
0.0041960329759638
 20
2.2509201291583301
 30
0.0
 11
0.0
 21
2.2899303608348425
 31
0.0
  0
LINE
  5
DD
100
AcDbEntity
100
AcDbLine
  8
color#ffffffff
 62
256
370
-1
  6
BYLAYER
 10
0.0
 20
2.2899303608348425
 30
0.0
 11
0.0
 21
2.4951145706098918
 31
0.0
  0
LINE
  5
DE
100
AcDbEntity
100
AcDbLine
  8
color#ffffffff
 62
256
370
-1
  6
BYLAYER
 10
0.0
 20
2.4951145706098918
 30
0.0
 11
0.007388330590527
 21
2.563339752059127
 31
0.0
  0
LINE
  5
DF
100
AcDbEntity
100
AcDbLine
  8
color#ffffffff
 62
256
370
-1
  6
BYLAYER
 10
0.007388330590527
 20
2.563339752059127
 30
0.0
 11
0.0179873922389784
 21
2.6312810449365274
 31
0.0
  0
LINE
  5
E0
100
AcDbEntity
100
AcDbLine
  8
color#ffffffff
 62
256
370
-1
  6
BYLAYER
 10
0.0179873922389784
 20
2.6312810449365274
 30
0.0
 11
0.031917919045382
 21
2.698663884696086
 31
0.0
  0
LINE
  5
E1
100
AcDbEntity
100
AcDbLine
  8
color#ffffffff
 62
256
370
-1
  6
BYLAYER
 10
0.031917919045382
 20
2.698663884696086
 30
0.0
 11
0.0493006451097658
 21
2.7652137067917972
 31
0.0
  0
LINE
  5
E2
100
AcDbEntity
100
AcDbLine
  8
color#ffffffff
 62
256
370
-1
  6
BYLAYER
 10
0.0493006451097658
 20
2.7652137067917972
 30
0.0
 11
0.0702563045321576
 21
2.8306559466776551
 31
0.0
  0
LINE
  5
E3
100
AcDbEntity
100
AcDbLine
  8
color#ffffffff
 62
256
370
-1
  6
BYLAYER
 10
0.0702563045321576
 20
2.8306559466776551
 30
0.0
 11
0.0862713289015482
 21
2.8735331957215156
 31
0.0
  0
LINE
  5
E4
100
AcDbEntity
100
AcDbLine
  8
color#ffffffff
 62
256
370
-1
  6
BYLAYER
 10
0.0862713289015482
 20
2.8735331957215156
 30
0.0
 11
0.103963756318963
 21
2.9157148048602526
 31
0.0
  0
LINE
  5
E5
100
AcDbEntity
100
AcDbLine
  8
color#ffffffff
 62
256
370
-1
  6
BYLAYER
 10
0.103963756318963
 20
2.9157148048602526
 30
0.0
 11
0.1233693598510769
 21
2.9571194216357894
 31
0.0
  0
LINE
  5
E6
100
AcDbEntity
100
AcDbLine
  8
color#ffffffff
 62
256
370
-1
  6
BYLAYER
 10
0.1233693598510769
 20
2.9571194216357894
 30
0.0
 11
0.144523912564565
 21
2.9976656935900508
 31
0.0
  0
LINE
  5
E7
100
AcDbEntity
100
AcDbLine
  8
color#ffffffff
 62
256
370
-1
  6
BYLAYER
 10
0.144523912564565
 20
2.9976656935900508
 30
0.0
 11
0.1674631875261019
 21
3.0372722682649602
 31
0.0
  0
LINE
  5
E8
100
AcDbEntity
100
AcDbLine
  8
color#ffffffff
 62
256
370
-1
  6
BYLAYER
 10
0.1674631875261019
 20
3.0372722682649602
 30
0.0
 11
0.1922229578023629
 21
3.0758577932024429
 31
0.0
  0
LINE
  5
E9
100
AcDbEntity
100
AcDbLine
  8
color#ffffffff
 62
256
370
-1
  6
BYLAYER
 10
0.1922229578023629
 20
3.0758577932024429
 30
0.0
 11
0.2188389964600228
 21
3.1133409159444216
 31
0.0
  0
LINE
  5
EA
100
AcDbEntity
100
AcDbLine
  8
color#ffffffff
 62
256
370
-1
  6
BYLAYER
 10
0.2188389964600228
 20
3.1133409159444216
 30
0.0
 11
0.2337802784047345
 21
3.1329091967652993
 31
0.0
  0
LINE
  5
EB
100
AcDbEntity
100
AcDbLine
  8
color#ffffffff
 62
256
370
-1
  6
BYLAYER
 10
0.2337802784047345
 20
3.1329091967652993
 30
0.0
 11
0.249255940678199
 21
3.1521088294937156
 31
0.0
  0
LINE
  5
EC
100
AcDbEntity
100
AcDbLine
  8
color#ffffffff
 62
256
370
-1
  6
BYLAYER
 10
0.249255940678199
 20
3.1521088294937156
 30
0.0
 11
0.2652524689458867
 21
3.1709214570886046
 31
0.0
  0
LINE
  5
ED
100
AcDbEntity
100
AcDbLine
  8
color#ffffffff
 62
256
370
-1
  6
BYLAYER
 10
0.2652524689458867
 20
3.1709214570886046
 30
0.0
 11
0.281756348873268
 21
3.1893287225088987
 31
0.0
  0
LINE
  5
EE
100
AcDbEntity
100
AcDbLine
  8
color#ffffffff
 62
256
370
-1
  6
BYLAYER
 10
0.281756348873268
 20
3.1893287225088987
 30
0.0
 11
0.2987540661258127
 21
3.2073122687135309
 31
0.0
  0
LINE
  5
EF
100
AcDbEntity
100
AcDbLine
  8
color#ffffffff
 62
256
370
-1
  6
BYLAYER
 10
0.2987540661258127
 20
3.2073122687135309
 30
0.0
 11
0.3162321063689911
 21
3.2248537386614342
 31
0.0
  0
LINE
  5
F0
100
AcDbEntity
100
AcDbLine
  8
color#ffffffff
 62
256
370
-1
  6
BYLAYER
 10
0.3162321063689911
 20
3.2248537386614342
 30
0.0
 11
0.3341769552682739
 21
3.2419347753115426
 31
0.0
  0
LINE
  5
F1
100
AcDbEntity
100
AcDbLine
  8
color#ffffffff
 62
256
370
-1
  6
BYLAYER
 10
0.3341769552682739
 20
3.2419347753115426
 30
0.0
 11
0.3525750984891305
 21
3.2585370216227885
 31
0.0
  0
LINE
  5
F2
100
AcDbEntity
100
AcDbLine
  8
color#ffffffff
 62
256
370
-1
  6
BYLAYER
 10
0.3525750984891305
 20
3.2585370216227885
 30
0.0
 11
0.3714130216970318
 21
3.274642120554105
 31
0.0
  0
LINE
  5
F3
100
AcDbEntity
100
AcDbLine
  8
color#ffffffff
 62
256
370
-1
  6
BYLAYER
 10
0.3714130216970318
 20
3.274642120554105
 30
0.0
 11
0.3906772105574477
 21
3.2902317150644254
 31
0.0
  0
LINE
  5
F4
100
AcDbEntity
100
AcDbLine
  8
color#ffffffff
 62
256
370
-1
  6
BYLAYER
 10
0.3906772105574477
 20
3.2902317150644254
 30
0.0
 11
0.4103541507358485
 21
3.3052874481126828
 31
0.0
  0
LINE
  5
F5
100
AcDbEntity
100
AcDbLine
  8
color#ffffffff
 62
256
370
-1
  6
BYLAYER
 10
0.4103541507358485
 20
3.3052874481126828
 30
0.0
 11
0.4304303278977045
 21
3.3197909626578102
 31
0.0
  0
LINE
  5
F6
100
AcDbEntity
100
AcDbLine
  8
color#ffffffff
 62
256
370
-1
  6
BYLAYER
 10
0.4304303278977045
 20
3.3197909626578102
 30
0.0
 11
0.4508922277084857
 21
3.3337239016587406
 31
0.0
  0
LINE
  5
F7
100
AcDbEntity
100
AcDbLine
  8
color#ffffffff
 62
256
370
-1
  6
BYLAYER
 10
0.4508922277084857
 20
3.3337239016587406
 30
0.0
 11
0.4717263358336624
 21
3.3470679080744072
 31
0.0
  0
LINE
  5
F8
100
AcDbEntity
100
AcDbLine
  8
color#ffffffff
 62
256
370
-1
  6
BYLAYER
 10
0.4717263358336624
 20
3.3470679080744072
 30
0.0
 11
0.492919137938705
 21
3.3598046248637434
 31
0.0
  0
LINE
  5
F9
100
AcDbEntity
100
AcDbLine
  8
color#ffffffff
 62
256
370
-1
  6
BYLAYER
 10
0.492919137938705
 20
3.3598046248637434
 30
0.0
 11
0.5144571196890834
 21
3.3719156949856814
 31
0.0
  0
LINE
  5
FA
100
AcDbEntity
100
AcDbLine
  8
color#ffffffff
 62
256
370
-1
  6
BYLAYER
 10
0.5144571196890834
 20
3.3719156949856814
 30
0.0
 11
0.5363267667502681
 21
3.3833827613991549
 31
0.0
  0
LINE
  5
FB
100
AcDbEntity
100
AcDbLine
  8
color#ffffffff
 62
256
370
-1
  6
BYLAYER
 10
0.5363267667502681
 20
3.3833827613991549
 30
0.0
 11
0.558514564787729
 21
3.3941874670630972
 31
0.0
  0
LINE
  5
FC
100
AcDbEntity
100
AcDbLine
  8
color#ffffffff
 62
256
370
-1
  6
BYLAYER
 10
0.558514564787729
 20
3.3941874670630972
 30
0.0
 11
0.5810069994669367
 21
3.4043114549364413
 31
0.0
  0
LINE
  5
FD
100
AcDbEntity
100
AcDbLine
  8
color#ffffffff
 62
256
370
-1
  6
BYLAYER
 10
0.5810069994669367
 20
3.4043114549364413
 30
0.0
 11
0.6037905564533612
 21
3.4137363679781196
 31
0.0
  0
LINE
  5
FE
100
AcDbEntity
100
AcDbLine
  8
color#ffffffff
 62
256
370
-1
  6
BYLAYER
 10
0.6037905564533612
 20
3.4137363679781196
 30
0.0
 11
0.6268517214124726
 21
3.4224438491470668
 31
0.0
  0
LINE
  5
FF
100
AcDbEntity
100
AcDbLine
  8
color#ffffffff
 62
256
370
-1
  6
BYLAYER
 10
0.6268517214124726
 20
3.4224438491470668
 30
0.0
 11
0.650176980009741
 21
3.4304155414022137
 31
0.0
  0
LINE
  5
100
100
AcDbEntity
100
AcDbLine
  8
color#ffffffff
 62
256
370
-1
  6
BYLAYER
 10
0.650176980009741
 20
3.4304155414022137
 30
0.0
 11
0.6737528179106376
 21
3.4376330877024954
 31
0.0
  0
LINE
  5
101
100
AcDbEntity
100
AcDbLine
  8
color#ffffffff
 62
256
370
-1
  6
BYLAYER
 10
0.6737528179106376
 20
3.4376330877024954
 30
0.0
 11
0.6975657207806313
 21
3.4440781310068438
 31
0.0
  0
LINE
  5
102
100
AcDbEntity
100
AcDbLine
  8
color#ffffffff
 62
256
370
-1
  6
BYLAYER
 10
0.6975657207806313
 20
3.4440781310068438
 30
0.0
 11
0.7216021742851928
 21
3.4497323142741925
 31
0.0
  0
LINE
  5
103
100
AcDbEntity
100
AcDbLine
  8
color#ffffffff
 62
256
370
-1
  6
BYLAYER
 10
0.7216021742851928
 20
3.4497323142741925
 30
0.0
 11
0.745848664089793
 21
3.4545772804634747
 31
0.0
  0
LINE
  5
104
100
AcDbEntity
100
AcDbLine
  8
color#ffffffff
 62
256
370
-1
  6
BYLAYER
 10
0.745848664089793
 20
3.4545772804634747
 30
0.0
 11
0.7702916758599011
 21
3.4585946725336232
 31
0.0
  0
LINE
  5
105
100
AcDbEntity
100
AcDbLine
  8
color#ffffffff
 62
256
370
-1
  6
BYLAYER
 10
0.7702916758599011
 20
3.4585946725336232
 30
0.0
 11
0.794917695260988
 21
3.4617661334435712
 31
0.0
  0
LINE
  5
106
100
AcDbEntity
100
AcDbLine
  8
color#ffffffff
 62
256
370
-1
  6
BYLAYER
 10
0.794917695260988
 20
3.4617661334435712
 30
0.0
 11
0.8197132079585232
 21
3.464073306152252
 31
0.0
  0
ENDSEC
  0
SECTION
  2
OBJECTS
  0
DICTIONARY
  5
C
100
AcDbDictionary
280
0
281
1
  3
ACAD_GROUP
350
D
  3
ACAD_LAYOUT
350
1A
  3
ACAD_MLINESTYLE
350
17
  3
ACAD_PLOTSETTINGS
350
19
  3
ACAD_PLOTSTYLENAME
350
E
  3
AcDbVariableDictionary
350
107
  0
DICTIONARY
  5
D
100
AcDbDictionary
280
0
281
1
  0
ACDBDICTIONARYWDFLT
  5
E
100
AcDbDictionary
281
1
  3
Normal
350
F
100
AcDbDictionaryWithDefault
340
F
  0
ACDBPLACEHOLDER
  5
F
  0
DICTIONARY
  5
17
100
AcDbDictionary
280
0
281
1
  3
Standard
350
18
  0
MLINESTYLE
  5
18
100
AcDbMlineStyle
  2
STANDARD
 70
0
  3

 62
256
 51
90.0
 52
90.0
 71
2
 49
0.5
 62
256
  6
BYLAYER
 49
-0.5
 62
256
  6
BYLAYER
  0
DICTIONARY
  5
19
100
AcDbDictionary
280
0
281
1
  0
DICTIONARY
  5
1A
100
AcDbDictionary
281
1
  3
Layout1
350
1E
  3
Layout2
350
26
  3
Model
350
22
  0
LAYOUT
  5
1E
100
AcDbPlotSettings
  1

  2
C:\Program Files\AutoCAD 2002\plotters\DWF ePlot (optimized for plotting).pc3
  4

  6

 40
0.0
 41
0.0
 42
0.0
 43
0.0
 44
0.0
 45
0.0
 46
0.0
 47
0.0
 48
0.0
 49
0.0
140
0.0
141
0.0
142
1.0
143
1.0
 70
688
 72
0
 73
0
 74
5
  7

 75
16
147
1.0
148
0.0
149
0.0
100
AcDbLayout
  1
Layout1
 70
1
 71
1
 10
0.0
 20
0.0
 11
420.0
 21
297.0
 12
0.0
 22
0.0
 32
0.0
 14
100000000000000000000.0
 24
100000000000000000000.0
 34
100000000000000000000.0
 15
-100000000000000000000.0
 25
-100000000000000000000.0
 35
-100000000000000000000.0
146
0.0
 13
0.0
 23
0.0
 33
0.0
 16
1.0
 26
0.0
 36
0.0
 17
0.0
 27
1.0
 37
0.0
 76
0
330
1B
  0
LAYOUT
  5
22
100
AcDbPlotSettings
  1

  2
C:\Program Files\AutoCAD 2002\plotters\DWF ePlot (optimized for plotting).pc3
  4

  6

 40
0.0
 41
0.0
 42
0.0
 43
0.0
 44
0.0
 45
0.0
 46
0.0
 47
0.0
 48
0.0
 49
0.0
140
0.0
141
0.0
142
1.0
143
1.0
 70
1712
 72
0
 73
0
 74
0
  7

 75
0
147
1.0
148
0.0
149
0.0
100
AcDbLayout
  1
Model
 70
1
 71
0
 10
0.0
 20
0.0
 11
12.0
 21
9.0
 12
0.0
 22
0.0
 32
0.0
 14
0.0
 24
0.0
 34
0.0
 15
0.0
 25
0.0
 35
0.0
146
0.0
 13
0.0
 23
0.0
 33
0.0
 16
1.0
 26
0.0
 36
0.0
 17
0.0
 27
1.0
 37
0.0
 76
0
330
1F
  0
LAYOUT
  5
26
100
AcDbPlotSettings
  1

  2
C:\Program Files\AutoCAD 2002\plotters\DWF ePlot (optimized for plotting).pc3
  4

  6

 40
0.0
 41
0.0
 42
0.0
 43
0.0
 44
0.0
 45
0.0
 46
0.0
 47
0.0
 48
0.0
 49
0.0
140
0.0
141
0.0
142
1.0
143
1.0
 70
688
 72
0
 73
0
 74
5
  7

 75
16
147
1.0
148
0.0
149
0.0
100
AcDbLayout
  1
Layout2
 70
1
 71
2
 10
0.0
 20
0.0
 11
12.0
 21
9.0
 12
0.0
 22
0.0
 32
0.0
 14
0.0
 24
0.0
 34
0.0
 15
0.0
 25
0.0
 35
0.0
146
0.0
 13
0.0
 23
0.0
 33
0.0
 16
1.0
 26
0.0
 36
0.0
 17
0.0
 27
1.0
 37
0.0
 76
0
330
23
  0
DICTIONARY
  5
107
100
AcDbDictionary
281
1
  3
DIMASSOC
350
109
  3
HIDETEXT
350
108
  0
DICTIONARYVAR
  5
108
100
DictionaryVariables
280
0
  1
2
  0
DICTIONARYVAR
  5
109
100
DictionaryVariables
280
0
  1
1
  0
ENDSEC
  0
EOF
